<svg width="51" height="50" viewBox="0 0 51 50" fill="none" xmlns="http://www.w3.org/2000/svg">
<path d="M12.3804 24.5L12.7518 23.5715L12.3804 24.5ZM22.8804 23.5L23.5206 22.7318L23.4795 22.6976L23.4351 22.6679L22.8804 23.5ZM35.8804 24.5L35.509 25.4285L35.6878 25.5H35.8804V24.5ZM4.8804 22.6658L5.07505 21.6849L4.8804 22.6658ZM4.8804 26.5H3.8804V27.5H4.8804V26.5ZM45.8804 24.2545L45.3722 23.3933L45.3722 23.3933L45.8804 24.2545ZM46.8804 34.5V35.5H47.1928L47.4496 35.3222L46.8804 34.5ZM28.3804 34.5L27.6278 33.8415L27.6199 33.8506L27.6122 33.8598L28.3804 34.5ZM25.8804 37.5L25.1405 38.1727L25.9132 39.0227L26.6486 38.1402L25.8804 37.5ZM23.1531 34.5L23.8931 33.8273L23.8931 33.8273L23.1531 34.5ZM8.38062 48.5L8.06439 49.4487L8.21834 49.5H8.38062V48.5ZM42.3809 48.5V49.5H42.4948L42.6057 49.4744L42.3809 48.5ZM47.3809 34.1337L46.7679 33.3436L46.7679 33.3436L47.3809 34.1337ZM12.3804 40.5L11.4861 40.9474L11.5586 41.0925L11.6734 41.2072L12.3804 40.5ZM17.3804 40L17.8766 40.8682L18.0373 40.7764L18.1544 40.6332L17.3804 40ZM29.3809 39.5L28.826 38.668L28.7054 38.7485L28.6126 38.8598L29.3809 39.5ZM40.8804 39L40.5641 38.0513L40.1951 38.1744L40.0062 38.5144L40.8804 39ZM29.0035 4.0076C28.4554 3.93963 27.956 4.32884 27.888 4.87692C27.82 5.42501 28.2092 5.92442 28.7573 5.9924L29.0035 4.0076ZM42.9346 15.3235C43.1133 15.8461 43.6817 16.1249 44.2043 15.9462C44.7269 15.7676 45.0057 15.1991 44.8271 14.6765L42.9346 15.3235ZM45.169 24.3695L44.6329 25.2137L45.169 24.3695ZM45.6074 24.4002L46.0404 25.3017L45.6074 24.4002ZM8.69462 22.6583L8.24157 23.5498L8.69462 22.6583ZM8.03651 22.5696L7.84984 21.5872L8.03651 22.5696ZM3.38062 19C3.38062 16.2126 4.43584 11.9613 7.62392 8.41896C10.7832 4.90868 16.1226 2 24.8806 2V0C15.6386 0 9.72807 3.09132 6.13733 7.08104C2.57541 11.0387 1.38062 15.7874 1.38062 19H3.38062ZM8.24157 23.5498C9.88734 24.3861 10.5392 24.8405 12.009 25.4285L12.7518 23.5715C11.3851 23.0248 10.9884 22.7022 9.14767 21.7668L8.24157 23.5498ZM12.009 25.4285C13.1096 25.8687 15.6716 26.1477 18.0051 24.2809L16.7557 22.7191C15.0892 24.0523 13.3179 23.798 12.7518 23.5715L12.009 25.4285ZM18.0051 24.2809C18.749 23.6857 19.5876 23.5497 20.3895 23.6433C21.2126 23.7393 21.9394 24.0745 22.3257 24.3321L23.4351 22.6679C22.8214 22.2588 21.7982 21.794 20.6213 21.6567C19.4232 21.517 18.0118 21.7143 16.7557 22.7191L18.0051 24.2809ZM22.2402 24.2682C22.8639 24.7879 23.9348 25.3789 25.221 25.5534C26.5447 25.733 28.0834 25.4659 29.5206 24.2682L28.2402 22.7318C27.2774 23.5341 26.3161 23.6837 25.4898 23.5716C24.626 23.4544 23.897 23.0454 23.5206 22.7318L22.2402 24.2682ZM29.5206 24.2682C29.9954 23.8725 30.4057 23.7124 30.7701 23.6627C31.1453 23.6116 31.5514 23.667 32.0298 23.8247C32.5177 23.9856 33.0272 24.2336 33.6175 24.5327C34.1864 24.8209 34.833 25.1581 35.509 25.4285L36.2518 23.5715C35.6778 23.3419 35.1244 23.0541 34.5214 22.7486C33.9399 22.4539 33.3056 22.1394 32.656 21.9253C31.9969 21.708 31.2717 21.5759 30.5001 21.681C29.7176 21.7876 28.9654 22.1275 28.2402 22.7318L29.5206 24.2682ZM35.8804 25.5C37.063 25.5 37.9065 25.23 38.7391 24.8137C39.132 24.6172 39.5311 24.3836 39.9355 24.1511C40.3487 23.9136 40.7954 23.6606 41.3276 23.3944L40.4332 21.6056C39.8474 21.8985 39.3601 22.175 38.9387 22.4172C38.5084 22.6646 38.1722 22.8611 37.8447 23.0248C37.2363 23.329 36.6978 23.5 35.8804 23.5V25.5ZM41.3276 23.3944C41.7402 23.1881 41.9272 23.1731 41.9964 23.1766C42.039 23.1788 42.111 23.188 42.2945 23.3255C42.5209 23.4952 42.7248 23.7028 43.1399 24.0733C43.5213 24.4138 43.9988 24.811 44.6329 25.2137L45.7051 23.5253C45.1941 23.2008 44.8056 22.8793 44.4717 22.5812C44.1714 22.3132 43.8104 21.9622 43.4937 21.7249C43.1341 21.4555 42.6847 21.2093 42.099 21.1793C41.5399 21.1506 40.9916 21.3264 40.4332 21.6056L41.3276 23.3944ZM47.8806 18H2.38062V20H47.8806V18ZM24.8806 2C33.6383 2 39.0682 4.909 42.335 8.43014C45.6299 11.9815 46.8036 16.2405 46.881 19.0278L48.8802 18.9722C48.791 15.7595 47.4647 11.0185 43.8012 7.06986C40.1097 3.091 34.1229 0 24.8806 0V2ZM1.40004 18.8039C1.2456 19.5761 1.26199 20.6111 1.74013 21.5618C2.24219 22.56 3.1983 23.3515 4.68575 23.6467L5.07505 21.6849C4.14871 21.5011 3.73248 21.0719 3.52687 20.6631C3.29734 20.2068 3.27073 19.6485 3.3612 19.1961L1.40004 18.8039ZM4.68575 23.6467C5.64939 23.8379 6.8179 23.8191 8.22319 23.552L7.84984 21.5872C6.61601 21.8216 5.71744 21.8124 5.07505 21.6849L4.68575 23.6467ZM3.8804 22.6658V26.5H5.8804V22.6658H3.8804ZM46.0404 25.3017C46.1604 25.244 46.2765 25.1819 46.3886 25.1157L45.3722 23.3933C45.3087 23.4307 45.2428 23.466 45.1745 23.4988L46.0404 25.3017ZM46.3886 25.1157C47.707 24.3377 48.4179 23.0415 48.7517 21.8638C49.0783 20.7116 49.0968 19.4863 48.8293 18.6838L46.9319 19.3162C47.0361 19.6287 47.0808 20.4249 46.8275 21.3184C46.5815 22.1864 46.1064 22.96 45.3722 23.3933L46.3886 25.1157ZM46.8804 26.5V24.2545H44.8804V26.5H46.8804ZM46.8804 33.5C46.8663 33.5 46.8523 33.5 46.8382 33.5C46.8241 33.5 46.8101 33.5 46.796 33.5C46.7819 33.5 46.7678 33.5 46.7537 33.5C46.7397 33.5 46.7256 33.5 46.7115 33.5C46.6974 33.5 46.6833 33.5 46.6692 33.5C46.6551 33.5 46.641 33.5 46.6269 33.5C46.6128 33.5 46.5987 33.5 46.5846 33.5C46.5705 33.5 46.5564 33.5 46.5422 33.5C46.5281 33.5 46.514 33.5 46.4999 33.5C46.4858 33.5 46.4716 33.5 46.4575 33.5C46.4434 33.5 46.4292 33.5 46.4151 33.5C46.401 33.5 46.3868 33.5 46.3727 33.5C46.3585 33.5 46.3444 33.5 46.3303 33.5C46.3161 33.5 46.302 33.5 46.2878 33.5C46.2737 33.5 46.2595 33.5 46.2453 33.5C46.2312 33.5 46.217 33.5 46.2028 33.5C46.1887 33.5 46.1745 33.5 46.1603 33.5C46.1462 33.5 46.132 33.5 46.1178 33.5C46.1036 33.5 46.0895 33.5 46.0753 33.5C46.0611 33.5 46.0469 33.5 46.0327 33.5C46.0185 33.5 46.0044 33.5 45.9902 33.5C45.976 33.5 45.9618 33.5 45.9476 33.5C45.9334 33.5 45.9192 33.5 45.905 33.5C45.8908 33.5 45.8766 33.5 45.8624 33.5C45.8481 33.5 45.8339 33.5 45.8197 33.5C45.8055 33.5 45.7913 33.5 45.7771 33.5C45.7629 33.5 45.7486 33.5 45.7344 33.5C45.7202 33.5 45.706 33.5 45.6917 33.5C45.6775 33.5 45.6633 33.5 45.6491 33.5C45.6348 33.5 45.6206 33.5 45.6064 33.5C45.5921 33.5 45.5779 33.5 45.5636 33.5C45.5494 33.5 45.5351 33.5 45.5209 33.5C45.5067 33.5 45.4924 33.5 45.4782 33.5C45.4639 33.5 45.4497 33.5 45.4354 33.5C45.4212 33.5 45.4069 33.5 45.3926 33.5C45.3784 33.5 45.3641 33.5 45.3499 33.5C45.3356 33.5 45.3213 33.5 45.3071 33.5C45.2928 33.5 45.2785 33.5 45.2643 33.5C45.25 33.5 45.2357 33.5 45.2215 33.5C45.2072 33.5 45.1929 33.5 45.1786 33.5C45.1643 33.5 45.1501 33.5 45.1358 33.5C45.1215 33.5 45.1072 33.5 45.0929 33.5C45.0787 33.5 45.0644 33.5 45.0501 33.5C45.0358 33.5 45.0215 33.5 45.0072 33.5C44.9929 33.5 44.9786 33.5 44.9643 33.5C44.95 33.5 44.9358 33.5 44.9215 33.5C44.9072 33.5 44.8929 33.5 44.8786 33.5C44.8643 33.5 44.85 33.5 44.8357 33.5C44.8214 33.5 44.807 33.5 44.7927 33.5C44.7784 33.5 44.7641 33.5 44.7498 33.5C44.7355 33.5 44.7212 33.5 44.7069 33.5C44.6926 33.5 44.6783 33.5 44.664 33.5C44.6496 33.5 44.6353 33.5 44.621 33.5C44.6067 33.5 44.5924 33.5 44.5781 33.5C44.5637 33.5 44.5494 33.5 44.5351 33.5C44.5208 33.5 44.5064 33.5 44.4921 33.5C44.4778 33.5 44.4635 33.5 44.4492 33.5C44.4348 33.5 44.4205 33.5 44.4062 33.5C44.3918 33.5 44.3775 33.5 44.3632 33.5C44.3489 33.5 44.3345 33.5 44.3202 33.5C44.3059 33.5 44.2915 33.5 44.2772 33.5C44.2629 33.5 44.2485 33.5 44.2342 33.5C44.2199 33.5 44.2055 33.5 44.1912 33.5C44.1769 33.5 44.1625 33.5 44.1482 33.5C44.1338 33.5 44.1195 33.5 44.1052 33.5C44.0908 33.5 44.0765 33.5 44.0621 33.5C44.0478 33.5 44.0335 33.5 44.0191 33.5C44.0048 33.5 43.9904 33.5 43.9761 33.5C43.9617 33.5 43.9474 33.5 43.9331 33.5C43.9187 33.5 43.9044 33.5 43.89 33.5C43.8757 33.5 43.8613 33.5 43.847 33.5C43.8326 33.5 43.8183 33.5 43.8039 33.5C43.7896 33.5 43.7752 33.5 43.7609 33.5C43.7465 33.5 43.7322 33.5 43.7178 33.5C43.7035 33.5 43.6892 33.5 43.6748 33.5C43.6605 33.5 43.6461 33.5 43.6318 33.5C43.6174 33.5 43.6031 33.5 43.5887 33.5C43.5744 33.5 43.56 33.5 43.5457 33.5C43.5313 33.5 43.517 33.5 43.5026 33.5C43.4883 33.5 43.4739 33.5 43.4595 33.5C43.4452 33.5 43.4308 33.5 43.4165 33.5C43.4021 33.5 43.3878 33.5 43.3734 33.5C43.3591 33.5 43.3447 33.5 43.3304 33.5C43.316 33.5 43.3017 33.5 43.2873 33.5C43.273 33.5 43.2586 33.5 43.2443 33.5C43.2299 33.5 43.2156 33.5 43.2012 33.5C43.1869 33.5 43.1725 33.5 43.1582 33.5C43.1438 33.5 43.1295 33.5 43.1151 33.5C43.1008 33.5 43.0864 33.5 43.0721 33.5C43.0578 33.5 43.0434 33.5 43.0291 33.5C43.0147 33.5 43.0004 33.5 42.986 33.5C42.9717 33.5 42.9573 33.5 42.943 33.5C42.9286 33.5 42.9143 33.5 42.8999 33.5C42.8856 33.5 42.8713 33.5 42.8569 33.5C42.8426 33.5 42.8282 33.5 42.8139 33.5C42.7995 33.5 42.7852 33.5 42.7709 33.5C42.7565 33.5 42.7422 33.5 42.7278 33.5C42.7135 33.5 42.6992 33.5 42.6848 33.5C42.6705 33.5 42.6561 33.5 42.6418 33.5C42.6275 33.5 42.6131 33.5 42.5988 33.5C42.5845 33.5 42.5701 33.5 42.5558 33.5C42.5415 33.5 42.5271 33.5 42.5128 33.5C42.4985 33.5 42.4841 33.5 42.4698 33.5C42.4555 33.5 42.4411 33.5 42.4268 33.5C42.4125 33.5 42.3982 33.5 42.3838 33.5C42.3695 33.5 42.3552 33.5 42.3409 33.5C42.3265 33.5 42.3122 33.5 42.2979 33.5C42.2836 33.5 42.2693 33.5 42.2549 33.5C42.2406 33.5 42.2263 33.5 42.212 33.5C42.1977 33.5 42.1834 33.5 42.169 33.5C42.1547 33.5 42.1404 33.5 42.1261 33.5C42.1118 33.5 42.0975 33.5 42.0832 33.5C42.0689 33.5 42.0546 33.5 42.0403 33.5C42.0259 33.5 42.0116 33.5 41.9973 33.5C41.983 33.5 41.9687 33.5 41.9544 33.5C41.9401 33.5 41.9258 33.5 41.9115 33.5C41.8972 33.5 41.8829 33.5 41.8687 33.5C41.8544 33.5 41.8401 33.5 41.8258 33.5C41.8115 33.5 41.7972 33.5 41.7829 33.5C41.7686 33.5 41.7543 33.5 41.7401 33.5C41.7258 33.5 41.7115 33.5 41.6972 33.5C41.6829 33.5 41.6686 33.5 41.6544 33.5C41.6401 33.5 41.6258 33.5 41.6115 33.5C41.5973 33.5 41.583 33.5 41.5687 33.5C41.5545 33.5 41.5402 33.5 41.5259 33.5C41.5117 33.5 41.4974 33.5 41.4831 33.5C41.4689 33.5 41.4546 33.5 41.4404 33.5C41.4261 33.5 41.4118 33.5 41.3976 33.5C41.3833 33.5 41.3691 33.5 41.3548 33.5C41.3406 33.5 41.3263 33.5 41.3121 33.5C41.2978 33.5 41.2836 33.5 41.2694 33.5C41.2551 33.5 41.2409 33.5 41.2266 33.5C41.2124 33.5 41.1982 33.5 41.1839 33.5C41.1697 33.5 41.1555 33.5 41.1413 33.5C41.127 33.5 41.1128 33.5 41.0986 33.5C41.0844 33.5 41.0701 33.5 41.0559 33.5C41.0417 33.5 41.0275 33.5 41.0133 33.5C40.9991 33.5 40.9848 33.5 40.9706 33.5C40.9564 33.5 40.9422 33.5 40.928 33.5C40.9138 33.5 40.8996 33.5 40.8854 33.5C40.8712 33.5 40.857 33.5 40.8428 33.5C40.8286 33.5 40.8145 33.5 40.8003 33.5C40.7861 33.5 40.7719 33.5 40.7577 33.5C40.7435 33.5 40.7294 33.5 40.7152 33.5C40.701 33.5 40.6868 33.5 40.6727 33.5C40.6585 33.5 40.6443 33.5 40.6302 33.5C40.616 33.5 40.6018 33.5 40.5877 33.5C40.5735 33.5 40.5593 33.5 40.5452 33.5C40.531 33.5 40.5169 33.5 40.5027 33.5C40.4886 33.5 40.4745 33.5 40.4603 33.5C40.4462 33.5 40.432 33.5 40.4179 33.5C40.4038 33.5 40.3896 33.5 40.3755 33.5C40.3614 33.5 40.3472 33.5 40.3331 33.5C40.319 33.5 40.3049 33.5 40.2908 33.5C40.2766 33.5 40.2625 33.5 40.2484 33.5C40.2343 33.5 40.2202 33.5 40.2061 33.5C40.192 33.5 40.1779 33.5 40.1638 33.5C40.1497 33.5 40.1356 33.5 40.1215 33.5C40.1074 33.5 40.0933 33.5 40.0793 33.5C40.0652 33.5 40.0511 33.5 40.037 33.5C40.0229 33.5 40.0089 33.5 39.9948 33.5C39.9807 33.5 39.9667 33.5 39.9526 33.5C39.9385 33.5 39.9245 33.5 39.9104 33.5C39.8964 33.5 39.8823 33.5 39.8683 33.5C39.8542 33.5 39.8402 33.5 39.8261 33.5C39.8121 33.5 39.7981 33.5 39.784 33.5C39.77 33.5 39.756 33.5 39.7419 33.5C39.7279 33.5 39.7139 33.5 39.6999 33.5C39.6859 33.5 39.6718 33.5 39.6578 33.5C39.6438 33.5 39.6298 33.5 39.6158 33.5C39.6018 33.5 39.5878 33.5 39.5738 33.5C39.5598 33.5 39.5458 33.5 39.5318 33.5C39.5179 33.5 39.5039 33.5 39.4899 33.5C39.4759 33.5 39.4619 33.5 39.448 33.5C39.434 33.5 39.42 33.5 39.4061 33.5C39.3921 33.5 39.3781 33.5 39.3642 33.5C39.3502 33.5 39.3363 33.5 39.3223 33.5C39.3084 33.5 39.2945 33.5 39.2805 33.5C39.2666 33.5 39.2526 33.5 39.2387 33.5C39.2248 33.5 39.2109 33.5 39.1969 33.5C39.183 33.5 39.1691 33.5 39.1552 33.5C39.1413 33.5 39.1274 33.5 39.1135 33.5C39.0996 33.5 39.0857 33.5 39.0718 33.5C39.0579 33.5 39.044 33.5 39.0301 33.5C39.0162 33.5 39.0024 33.5 38.9885 33.5C38.9746 33.5 38.9607 33.5 38.9469 33.5C38.933 33.5 38.9191 33.5 38.9053 33.5C38.8914 33.5 38.8776 33.5 38.8637 33.5C38.8499 33.5 38.836 33.5 38.8222 33.5C38.8084 33.5 38.7945 33.5 38.7807 33.5C38.7669 33.5 38.753 33.5 38.7392 33.5C38.7254 33.5 38.7116 33.5 38.6978 33.5C38.684 33.5 38.6702 33.5 38.6564 33.5C38.6426 33.5 38.6288 33.5 38.615 33.5C38.6012 33.5 38.5874 33.5 38.5736 33.5C38.5599 33.5 38.5461 33.5 38.5323 33.5C38.5185 33.5 38.5048 33.5 38.491 33.5C38.4773 33.5 38.4635 33.5 38.4498 33.5C38.436 33.5 38.4223 33.5 38.4085 33.5C38.3948 33.5 38.3811 33.5 38.3673 33.5C38.3536 33.5 38.3399 33.5 38.3262 33.5C38.3124 33.5 38.2987 33.5 38.285 33.5C38.2713 33.5 38.2576 33.5 38.2439 33.5C38.2302 33.5 38.2165 33.5 38.2028 33.5C38.1892 33.5 38.1755 33.5 38.1618 33.5C38.1481 33.5 38.1345 33.5 38.1208 33.5C38.1071 33.5 38.0935 33.5 38.0798 33.5C38.0662 33.5 38.0525 33.5 38.0389 33.5C38.0252 33.5 38.0116 33.5 37.998 33.5C37.9843 33.5 37.9707 33.5 37.9571 33.5C37.9435 33.5 37.9299 33.5 37.9162 33.5C37.9026 33.5 37.889 33.5 37.8754 33.5C37.8618 33.5 37.8483 33.5 37.8347 33.5C37.8211 33.5 37.8075 33.5 37.7939 33.5C37.7804 33.5 37.7668 33.5 37.7532 33.5C37.7397 33.5 37.7261 33.5 37.7126 33.5C37.699 33.5 37.6855 33.5 37.6719 33.5C37.6584 33.5 37.6449 33.5 37.6313 33.5C37.6178 33.5 37.6043 33.5 37.5908 33.5C37.5773 33.5 37.5638 33.5 37.5503 33.5C37.5368 33.5 37.5233 33.5 37.5098 33.5C37.4963 33.5 37.4828 33.5 37.4693 33.5C37.4558 33.5 37.4424 33.5 37.4289 33.5C37.4154 33.5 37.402 33.5 37.3885 33.5C37.3751 33.5 37.3616 33.5 37.3482 33.5C37.3348 33.5 37.3213 33.5 37.3079 33.5C37.2945 33.5 37.281 33.5 37.2676 33.5C37.2542 33.5 37.2408 33.5 37.2274 33.5C37.214 33.5 37.2006 33.5 37.1872 33.5C37.1738 33.5 37.1605 33.5 37.1471 33.5C37.1337 33.5 37.1203 33.5 37.107 33.5C37.0936 33.5 37.0803 33.5 37.0669 33.5C37.0536 33.5 37.0402 33.5 37.0269 33.5C37.0136 33.5 37.0002 33.5 36.9869 33.5C36.9736 33.5 36.9603 33.5 36.947 33.5C36.9337 33.5 36.9203 33.5 36.9071 33.5C36.8938 33.5 36.8805 33.5 36.8672 33.5C36.8539 33.5 36.8406 33.5 36.8274 33.5C36.8141 33.5 36.8008 33.5 36.7876 33.5C36.7743 33.5 36.7611 33.5 36.7478 33.5C36.7346 33.5 36.7214 33.5 36.7082 33.5C36.6949 33.5 36.6817 33.5 36.6685 33.5C36.6553 33.5 36.6421 33.5 36.6289 33.5C36.6157 33.5 36.6025 33.5 36.5893 33.5C36.5761 33.5 36.563 33.5 36.5498 33.5C36.5366 33.5 36.5235 33.5 36.5103 33.5C36.4971 33.5 36.484 33.5 36.4709 33.5C36.4577 33.5 36.4446 33.5 36.4315 33.5C36.4183 33.5 36.4052 33.5 36.3921 33.5C36.379 33.5 36.3659 33.5 36.3528 33.5C36.3397 33.5 36.3266 33.5 36.3135 33.5C36.3005 33.5 36.2874 33.5 36.2743 33.5C36.2613 33.5 36.2482 33.5 36.2351 33.5C36.2221 33.5 36.2091 33.5 36.196 33.5C36.183 33.5 36.17 33.5 36.1569 33.5C36.1439 33.5 36.1309 33.5 36.1179 33.5C36.1049 33.5 36.0919 33.5 36.0789 33.5C36.0659 33.5 36.0529 33.5 36.04 33.5C36.027 33.5 36.014 33.5 36.0011 33.5C35.9881 33.5 35.9752 33.5 35.9622 33.5C35.9493 33.5 35.9363 33.5 35.9234 33.5C35.9105 33.5 35.8976 33.5 35.8847 33.5C35.8717 33.5 35.8588 33.5 35.846 33.5C35.8331 33.5 35.8202 33.5 35.8073 33.5C35.7944 33.5 35.7815 33.5 35.7687 33.5C35.7558 33.5 35.743 33.5 35.7301 33.5C35.7173 33.5 35.7044 33.5 35.6916 33.5C35.6788 33.5 35.666 33.5 35.6531 33.5C35.6403 33.5 35.6275 33.5 35.6147 33.5C35.6019 33.5 35.5891 33.5 35.5764 33.5C35.5636 33.5 35.5508 33.5 35.538 33.5C35.5253 33.5 35.5125 33.5 35.4998 33.5C35.487 33.5 35.4743 33.5 35.4616 33.5C35.4488 33.5 35.4361 33.5 35.4234 33.5C35.4107 33.5 35.398 33.5 35.3853 33.5C35.3726 33.5 35.3599 33.5 35.3472 33.5C35.3345 33.5 35.3219 33.5 35.3092 33.5C35.2965 33.5 35.2839 33.5 35.2712 33.5C35.2586 33.5 35.246 33.5 35.2333 33.5C35.2207 33.5 35.2081 33.5 35.1955 33.5C35.1829 33.5 35.1703 33.5 35.1577 33.5C35.1451 33.5 35.1325 33.5 35.1199 33.5C35.1073 33.5 35.0948 33.5 35.0822 33.5C35.0697 33.5 35.0571 33.5 35.0446 33.5C35.032 33.5 35.0195 33.5 35.007 33.5C34.9945 33.5 34.982 33.5 34.9694 33.5C34.9569 33.5 34.9445 33.5 34.932 33.5C34.9195 33.5 34.907 33.5 34.8945 33.5C34.8821 33.5 34.8696 33.5 34.8572 33.5C34.8447 33.5 34.8323 33.5 34.8198 33.5C34.8074 33.5 34.795 33.5 34.7826 33.5C34.7702 33.5 34.7578 33.5 34.7454 33.5C34.733 33.5 34.7206 33.5 34.7082 33.5C34.6958 33.5 34.6835 33.5 34.6711 33.5C34.6588 33.5 34.6464 33.5 34.6341 33.5C34.6217 33.5 34.6094 33.5 34.5971 33.5C34.5848 33.5 34.5725 33.5 34.5602 33.5C34.5479 33.5 34.5356 33.5 34.5233 33.5C34.511 33.5 34.4987 33.5 34.4865 33.5C34.4742 33.5 34.462 33.5 34.4497 33.5C34.4375 33.5 34.4253 33.5 34.413 33.5C34.4008 33.5 34.3886 33.5 34.3764 33.5C34.3642 33.5 34.352 33.5 34.3398 33.5C34.3276 33.5 34.3154 33.5 34.3033 33.5C34.2911 33.5 34.279 33.5 34.2668 33.5C34.2547 33.5 34.2425 33.5 34.2304 33.5C34.2183 33.5 34.2062 33.5 34.1941 33.5C34.182 33.5 34.1699 33.5 34.1578 33.5C34.1457 33.5 34.1336 33.5 34.1216 33.5C34.1095 33.5 34.0974 33.5 34.0854 33.5C34.0733 33.5 34.0613 33.5 34.0493 33.5C34.0373 33.5 34.0252 33.5 34.0132 33.5C34.0012 33.5 33.9892 33.5 33.9772 33.5C33.9653 33.5 33.9533 33.5 33.9413 33.5C33.9294 33.5 33.9174 33.5 33.9055 33.5C33.8935 33.5 33.8816 33.5 33.8697 33.5C33.8577 33.5 33.8458 33.5 33.8339 33.5C33.822 33.5 33.8101 33.5 33.7982 33.5C33.7864 33.5 33.7745 33.5 33.7626 33.5C33.7508 33.5 33.7389 33.5 33.7271 33.5C33.7152 33.5 33.7034 33.5 33.6916 33.5C33.6798 33.5 33.668 33.5 33.6562 33.5C33.6444 33.5 33.6326 33.5 33.6208 33.5C33.609 33.5 33.5973 33.5 33.5855 33.5C33.5738 33.5 33.562 33.5 33.5503 33.5C33.5385 33.5 33.5268 33.5 33.5151 33.5C33.5034 33.5 33.4917 33.5 33.48 33.5C33.4683 33.5 33.4566 33.5 33.445 33.5C33.4333 33.5 33.4216 33.5 33.41 33.5C33.3983 33.5 33.3867 33.5 33.3751 33.5C33.3635 33.5 33.3518 33.5 33.3402 33.5C33.3286 33.5 33.317 33.5 33.3055 33.5C33.2939 33.5 33.2823 33.5 33.2708 33.5C33.2592 33.5 33.2476 33.5 33.2361 33.5C33.2246 33.5 33.213 33.5 33.2015 33.5C33.19 33.5 33.1785 33.5 33.167 33.5C33.1555 33.5 33.144 33.5 33.1326 33.5C33.1211 33.5 33.1096 33.5 33.0982 33.5C33.0868 33.5 33.0753 33.5 33.0639 33.5C33.0525 33.5 33.0411 33.5 33.0297 33.5C33.0183 33.5 33.0069 33.5 32.9955 33.5C32.9841 33.5 32.9727 33.5 32.9614 33.5C32.95 33.5 32.9387 33.5 32.9273 33.5C32.916 33.5 32.9047 33.5 32.8934 33.5C32.8821 33.5 32.8708 33.5 32.8595 33.5C32.8482 33.5 32.8369 33.5 32.8257 33.5C32.8144 33.5 32.8031 33.5 32.7919 33.5C32.7807 33.5 32.7694 33.5 32.7582 33.5C32.747 33.5 32.7358 33.5 32.7246 33.5C32.7134 33.5 32.7022 33.5 32.6911 33.5C32.6799 33.5 32.6687 33.5 32.6576 33.5C32.6464 33.5 32.6353 33.5 32.6242 33.5C32.6131 33.5 32.6019 33.5 32.5908 33.5C32.5797 33.5 32.5687 33.5 32.5576 33.5C32.5465 33.5 32.5354 33.5 32.5244 33.5C32.5133 33.5 32.5023 33.5 32.4913 33.5C32.4803 33.5 32.4692 33.5 32.4582 33.5C32.4472 33.5 32.4362 33.5 32.4253 33.5C32.4143 33.5 32.4033 33.5 32.3924 33.5C32.3814 33.5 32.3705 33.5 32.3595 33.5C32.3486 33.5 32.3377 33.5 32.3268 33.5C32.3159 33.5 32.305 33.5 32.2941 33.5C32.2832 33.5 32.2724 33.5 32.2615 33.5C32.2507 33.5 32.2398 33.5 32.229 33.5C32.2182 33.5 32.2073 33.5 32.1965 33.5C32.1857 33.5 32.1749 33.5 32.1642 33.5C32.1534 33.5 32.1426 33.5 32.1319 33.5C32.1211 33.5 32.1104 33.5 32.0996 33.5C32.0889 33.5 32.0782 33.5 32.0675 33.5C32.0568 33.5 32.0461 33.5 32.0354 33.5C32.0247 33.5 32.0141 33.5 32.0034 33.5C31.9927 33.5 31.9821 33.5 31.9715 33.5C31.9609 33.5 31.9502 33.5 31.9396 33.5C31.929 33.5 31.9184 33.5 31.9079 33.5C31.8973 33.5 31.8867 33.5 31.8762 33.5C31.8656 33.5 31.8551 33.5 31.8446 33.5C31.834 33.5 31.8235 33.5 31.813 33.5C31.8025 33.5 31.792 33.5 31.7816 33.5C31.7711 33.5 31.7606 33.5 31.7502 33.5C31.7397 33.5 31.7293 33.5 31.7189 33.5C31.7085 33.5 31.6981 33.5 31.6877 33.5C31.6773 33.5 31.6669 33.5 31.6565 33.5C31.6461 33.5 31.6358 33.5 31.6254 33.5C31.6151 33.5 31.6048 33.5 31.5945 33.5C31.5841 33.5 31.5738 33.5 31.5636 33.5C31.5533 33.5 31.543 33.5 31.5327 33.5C31.5225 33.5 31.5122 33.5 31.502 33.5C31.4918 33.5 31.4815 33.5 31.4713 33.5C31.4611 33.5 31.4509 33.5 31.4407 33.5C31.4306 33.5 31.4204 33.5 31.4102 33.5C31.4001 33.5 31.3899 33.5 31.3798 33.5C31.3697 33.5 31.3596 33.5 31.3495 33.5C31.3394 33.5 31.3293 33.5 31.3192 33.5C31.3092 33.5 31.2991 33.5 31.2891 33.5C31.279 33.5 31.269 33.5 31.259 33.5C31.2489 33.5 31.2389 33.5 31.229 33.5C31.219 33.5 31.209 33.5 31.199 33.5C31.1891 33.5 31.1791 33.5 31.1692 33.5C31.1593 33.5 31.1493 33.5 31.1394 33.5C31.1295 33.5 31.1196 33.5 31.1098 33.5C31.0999 33.5 31.09 33.5 31.0802 33.5C31.0703 33.5 31.0605 33.5 31.0507 33.5C31.0408 33.5 31.031 33.5 31.0212 33.5C31.0114 33.5 31.0017 33.5 30.9919 33.5C30.9821 33.5 30.9724 33.5 30.9627 33.5C30.9529 33.5 30.9432 33.5 30.9335 33.5C30.9238 33.5 30.9141 33.5 30.9044 33.5C30.8947 33.5 30.8851 33.5 30.8754 33.5C30.8658 33.5 30.8561 33.5 30.8465 33.5C30.8369 33.5 30.8273 33.5 30.8177 33.5C30.8081 33.5 30.7985 33.5 30.7889 33.5C30.7794 33.5 30.7698 33.5 30.7603 33.5C30.7508 33.5 30.7412 33.5 30.7317 33.5C30.7222 33.5 30.7127 33.5 30.7033 33.5C30.6938 33.5 30.6843 33.5 30.6749 33.5C30.6654 33.5 30.656 33.5 30.6466 33.5C30.6372 33.5 30.6278 33.5 30.6184 33.5C30.609 33.5 30.5996 33.5 30.5903 33.5C30.5809 33.5 30.5716 33.5 30.5622 33.5C30.5529 33.5 30.5436 33.5 30.5343 33.5C30.525 33.5 30.5157 33.5 30.5064 33.5C30.4972 33.5 30.4879 33.5 30.4787 33.5C30.4694 33.5 30.4602 33.5 30.451 33.5C30.4418 33.5 30.4326 33.5 30.4234 33.5C30.4142 33.5 30.4051 33.5 30.3959 33.5C30.3868 33.5 30.3776 33.5 30.3685 33.5C30.3594 33.5 30.3503 33.5 30.3412 33.5C30.3321 33.5 30.3231 33.5 30.314 33.5C30.3049 33.5 30.2959 33.5 30.2869 33.5C30.2778 33.5 30.2688 33.5 30.2598 33.5C30.2508 33.5 30.2419 33.5 30.2329 33.5C30.2239 33.5 30.215 33.5 30.206 33.5C30.1971 33.5 30.1882 33.5 30.1793 33.5C30.1704 33.5 30.1615 33.5 30.1526 33.5C30.1437 33.5 30.1349 33.5 30.126 33.5C30.1172 33.5 30.1084 33.5 30.0996 33.5C30.0908 33.5 30.082 33.5 30.0732 33.5C30.0644 33.5 30.0556 33.5 30.0469 33.5C30.0381 33.5 30.0294 33.5 30.0207 33.5C30.012 33.5 30.0033 33.5 29.9946 33.5C29.9859 33.5 29.9772 33.5 29.9686 33.5C29.9599 33.5 29.9513 33.5 29.9427 33.5C29.934 33.5 29.9254 33.5 29.9168 33.5C29.9083 33.5 29.8997 33.5 29.8911 33.5C29.8826 33.5 29.874 33.5 29.8655 33.5C29.857 33.5 29.8485 33.5 29.84 33.5C29.8315 33.5 29.823 33.5 29.8145 33.5C29.8061 33.5 29.7976 33.5 29.7892 33.5C29.7808 33.5 29.7723 33.5 29.7639 33.5C29.7556 33.5 29.7472 33.5 29.7388 33.5C29.7304 33.5 29.7221 33.5 29.7138 33.5C29.7054 33.5 29.6971 33.5 29.6888 33.5C29.6805 33.5 29.6722 33.5 29.664 33.5C29.6557 33.5 29.6474 33.5 29.6392 33.5C29.631 33.5 29.6227 33.5 29.6145 33.5C29.6063 33.5 29.5982 33.5 29.59 33.5C29.5818 33.5 29.5737 33.5 29.5655 33.5C29.5574 33.5 29.5493 33.5 29.5412 33.5C29.5331 33.5 29.525 33.5 29.5169 33.5C29.5088 33.5 29.5008 33.5 29.4928 33.5C29.4847 33.5 29.4767 33.5 29.4687 33.5C29.4607 33.5 29.4527 33.5 29.4447 33.5C29.4368 33.5 29.4288 33.5 29.4209 33.5C29.4129 33.5 29.405 33.5 29.3971 33.5C29.3892 33.5 29.3813 33.5 29.3735 33.5C29.3656 33.5 29.3577 33.5 29.3499 33.5C29.3421 33.5 29.3343 33.5 29.3265 33.5C29.3187 33.5 29.3109 33.5 29.3031 33.5C29.2953 33.5 29.2876 33.5 29.2799 33.5C29.2721 33.5 29.2644 33.5 29.2567 33.5C29.249 33.5 29.2413 33.5 29.2337 33.5C29.226 33.5 29.2183 33.5 29.2107 33.5C29.2031 33.5 29.1955 33.5 29.1879 33.5C29.1803 33.5 29.1727 33.5 29.1651 33.5C29.1576 33.5 29.15 33.5 29.1425 33.5C29.135 33.5 29.1275 33.5 29.12 33.5C29.1125 33.5 29.105 33.5 29.0976 33.5C29.0901 33.5 29.0827 33.5 29.0752 33.5C29.0678 33.5 29.0604 33.5 29.053 33.5C29.0456 33.5 29.0383 33.5 29.0309 33.5C29.0236 33.5 29.0162 33.5 29.0089 33.5C29.0016 33.5 28.9943 33.5 28.987 33.5C28.9797 33.5 28.9725 33.5 28.9652 33.5C28.958 33.5 28.9507 33.5 28.9435 33.5C28.9363 33.5 28.9291 33.5 28.9219 33.5C28.9148 33.5 28.9076 33.5 28.9005 33.5C28.8933 33.5 28.8862 33.5 28.8791 33.5C28.872 33.5 28.8649 33.5 28.8578 33.5C28.8508 33.5 28.8437 33.5 28.8367 33.5C28.8297 33.5 28.8226 33.5 28.8156 33.5C28.8086 33.5 28.8017 33.5 28.7947 33.5C28.7877 33.5 28.7808 33.5 28.7739 33.5C28.767 33.5 28.76 33.5 28.7532 33.5C28.7463 33.5 28.7394 33.5 28.7325 33.5C28.7257 33.5 28.7189 33.5 28.712 33.5C28.7052 33.5 28.6984 33.5 28.6916 33.5C28.6849 33.5 28.6781 33.5 28.6714 33.5C28.6646 33.5 28.6579 33.5 28.6512 33.5C28.6445 33.5 28.6378 33.5 28.6311 33.5C28.6245 33.5 28.6178 33.5 28.6112 33.5C28.6045 33.5 28.5979 33.5 28.5913 33.5C28.5847 33.5 28.5781 33.5 28.5716 33.5C28.565 33.5 28.5585 33.5 28.552 33.5C28.5454 33.5 28.5389 33.5 28.5325 33.5C28.526 33.5 28.5195 33.5 28.5131 33.5C28.5066 33.5 28.5002 33.5 28.4938 33.5C28.4874 33.5 28.481 33.5 28.4746 33.5C28.4682 33.5 28.4619 33.5 28.4555 33.5C28.4492 33.5 28.4429 33.5 28.4366 33.5C28.4303 33.5 28.424 33.5 28.4177 33.5C28.4115 33.5 28.4052 33.5 28.399 33.5C28.3928 33.5 28.3866 33.5 28.3804 33.5V35.5C28.3866 35.5 28.3928 35.5 28.399 35.5C28.4052 35.5 28.4115 35.5 28.4177 35.5C28.424 35.5 28.4303 35.5 28.4366 35.5C28.4429 35.5 28.4492 35.5 28.4555 35.5C28.4619 35.5 28.4682 35.5 28.4746 35.5C28.481 35.5 28.4874 35.5 28.4938 35.5C28.5002 35.5 28.5066 35.5 28.5131 35.5C28.5195 35.5 28.526 35.5 28.5325 35.5C28.5389 35.5 28.5454 35.5 28.552 35.5C28.5585 35.5 28.565 35.5 28.5716 35.5C28.5781 35.5 28.5847 35.5 28.5913 35.5C28.5979 35.5 28.6045 35.5 28.6112 35.5C28.6178 35.5 28.6245 35.5 28.6311 35.5C28.6378 35.5 28.6445 35.5 28.6512 35.5C28.6579 35.5 28.6646 35.5 28.6714 35.5C28.6781 35.5 28.6849 35.5 28.6916 35.5C28.6984 35.5 28.7052 35.5 28.712 35.5C28.7189 35.5 28.7257 35.5 28.7325 35.5C28.7394 35.5 28.7463 35.5 28.7532 35.5C28.76 35.5 28.767 35.5 28.7739 35.5C28.7808 35.5 28.7877 35.5 28.7947 35.5C28.8017 35.5 28.8086 35.5 28.8156 35.5C28.8226 35.5 28.8297 35.5 28.8367 35.5C28.8437 35.5 28.8508 35.5 28.8578 35.5C28.8649 35.5 28.872 35.5 28.8791 35.5C28.8862 35.5 28.8933 35.5 28.9005 35.5C28.9076 35.5 28.9148 35.5 28.9219 35.5C28.9291 35.5 28.9363 35.5 28.9435 35.5C28.9507 35.5 28.958 35.5 28.9652 35.5C28.9725 35.5 28.9797 35.5 28.987 35.5C28.9943 35.5 29.0016 35.5 29.0089 35.5C29.0162 35.5 29.0236 35.5 29.0309 35.5C29.0383 35.5 29.0456 35.5 29.053 35.5C29.0604 35.5 29.0678 35.5 29.0752 35.5C29.0827 35.5 29.0901 35.5 29.0976 35.5C29.105 35.5 29.1125 35.5 29.12 35.5C29.1275 35.5 29.135 35.5 29.1425 35.5C29.15 35.5 29.1576 35.5 29.1651 35.5C29.1727 35.5 29.1803 35.5 29.1879 35.5C29.1955 35.5 29.2031 35.5 29.2107 35.5C29.2183 35.5 29.226 35.5 29.2337 35.5C29.2413 35.5 29.249 35.5 29.2567 35.5C29.2644 35.5 29.2721 35.5 29.2799 35.5C29.2876 35.5 29.2953 35.5 29.3031 35.5C29.3109 35.5 29.3187 35.5 29.3265 35.5C29.3343 35.5 29.3421 35.5 29.3499 35.5C29.3577 35.5 29.3656 35.5 29.3735 35.5C29.3813 35.5 29.3892 35.5 29.3971 35.5C29.405 35.5 29.4129 35.5 29.4209 35.5C29.4288 35.5 29.4368 35.5 29.4447 35.5C29.4527 35.5 29.4607 35.5 29.4687 35.5C29.4767 35.5 29.4847 35.5 29.4928 35.5C29.5008 35.5 29.5088 35.5 29.5169 35.5C29.525 35.5 29.5331 35.5 29.5412 35.5C29.5493 35.5 29.5574 35.5 29.5655 35.5C29.5737 35.5 29.5818 35.5 29.59 35.5C29.5982 35.5 29.6063 35.5 29.6145 35.5C29.6227 35.5 29.631 35.5 29.6392 35.5C29.6474 35.5 29.6557 35.5 29.664 35.5C29.6722 35.5 29.6805 35.5 29.6888 35.5C29.6971 35.5 29.7054 35.5 29.7138 35.5C29.7221 35.5 29.7304 35.5 29.7388 35.5C29.7472 35.5 29.7556 35.5 29.7639 35.5C29.7723 35.5 29.7808 35.5 29.7892 35.5C29.7976 35.5 29.8061 35.5 29.8145 35.5C29.823 35.5 29.8315 35.5 29.84 35.5C29.8485 35.5 29.857 35.5 29.8655 35.5C29.874 35.5 29.8826 35.5 29.8911 35.5C29.8997 35.5 29.9083 35.5 29.9168 35.5C29.9254 35.5 29.934 35.5 29.9427 35.5C29.9513 35.5 29.9599 35.5 29.9686 35.5C29.9772 35.5 29.9859 35.5 29.9946 35.5C30.0033 35.5 30.012 35.5 30.0207 35.5C30.0294 35.5 30.0381 35.5 30.0469 35.5C30.0556 35.5 30.0644 35.5 30.0732 35.5C30.082 35.5 30.0908 35.5 30.0996 35.5C30.1084 35.5 30.1172 35.5 30.126 35.5C30.1349 35.5 30.1437 35.5 30.1526 35.5C30.1615 35.5 30.1704 35.5 30.1793 35.5C30.1882 35.5 30.1971 35.5 30.206 35.5C30.215 35.5 30.2239 35.5 30.2329 35.5C30.2419 35.5 30.2508 35.5 30.2598 35.5C30.2688 35.5 30.2778 35.5 30.2869 35.5C30.2959 35.5 30.3049 35.5 30.314 35.5C30.3231 35.5 30.3321 35.5 30.3412 35.5C30.3503 35.5 30.3594 35.5 30.3685 35.5C30.3776 35.5 30.3868 35.5 30.3959 35.5C30.4051 35.5 30.4142 35.5 30.4234 35.5C30.4326 35.5 30.4418 35.5 30.451 35.5C30.4602 35.5 30.4694 35.5 30.4787 35.5C30.4879 35.5 30.4972 35.5 30.5064 35.5C30.5157 35.5 30.525 35.5 30.5343 35.5C30.5436 35.5 30.5529 35.5 30.5622 35.5C30.5716 35.5 30.5809 35.5 30.5903 35.5C30.5996 35.5 30.609 35.5 30.6184 35.5C30.6278 35.5 30.6372 35.5 30.6466 35.5C30.656 35.5 30.6654 35.5 30.6749 35.5C30.6843 35.5 30.6938 35.5 30.7033 35.5C30.7127 35.5 30.7222 35.5 30.7317 35.5C30.7412 35.5 30.7508 35.5 30.7603 35.5C30.7698 35.5 30.7794 35.5 30.7889 35.5C30.7985 35.5 30.8081 35.5 30.8177 35.5C30.8273 35.5 30.8369 35.5 30.8465 35.5C30.8561 35.5 30.8658 35.5 30.8754 35.5C30.8851 35.5 30.8947 35.5 30.9044 35.5C30.9141 35.5 30.9238 35.5 30.9335 35.5C30.9432 35.5 30.9529 35.5 30.9627 35.5C30.9724 35.5 30.9821 35.5 30.9919 35.5C31.0017 35.5 31.0114 35.5 31.0212 35.5C31.031 35.5 31.0408 35.5 31.0507 35.5C31.0605 35.5 31.0703 35.5 31.0802 35.5C31.09 35.5 31.0999 35.5 31.1098 35.5C31.1196 35.5 31.1295 35.5 31.1394 35.5C31.1493 35.5 31.1593 35.5 31.1692 35.5C31.1791 35.5 31.1891 35.5 31.199 35.5C31.209 35.5 31.219 35.5 31.229 35.5C31.2389 35.5 31.2489 35.5 31.259 35.5C31.269 35.5 31.279 35.5 31.2891 35.5C31.2991 35.5 31.3092 35.5 31.3192 35.5C31.3293 35.5 31.3394 35.5 31.3495 35.5C31.3596 35.5 31.3697 35.5 31.3798 35.5C31.3899 35.5 31.4001 35.5 31.4102 35.5C31.4204 35.5 31.4306 35.5 31.4407 35.5C31.4509 35.5 31.4611 35.5 31.4713 35.5C31.4815 35.5 31.4918 35.5 31.502 35.5C31.5122 35.5 31.5225 35.5 31.5327 35.5C31.543 35.5 31.5533 35.5 31.5636 35.5C31.5738 35.5 31.5841 35.5 31.5945 35.5C31.6048 35.5 31.6151 35.5 31.6254 35.5C31.6358 35.5 31.6461 35.5 31.6565 35.5C31.6669 35.5 31.6773 35.5 31.6877 35.5C31.6981 35.5 31.7085 35.5 31.7189 35.5C31.7293 35.5 31.7397 35.5 31.7502 35.5C31.7606 35.5 31.7711 35.5 31.7816 35.5C31.792 35.5 31.8025 35.5 31.813 35.5C31.8235 35.5 31.834 35.5 31.8446 35.5C31.8551 35.5 31.8656 35.5 31.8762 35.5C31.8867 35.5 31.8973 35.5 31.9079 35.5C31.9184 35.5 31.929 35.5 31.9396 35.5C31.9502 35.5 31.9609 35.5 31.9715 35.5C31.9821 35.5 31.9927 35.5 32.0034 35.5C32.0141 35.5 32.0247 35.5 32.0354 35.5C32.0461 35.5 32.0568 35.5 32.0675 35.5C32.0782 35.5 32.0889 35.5 32.0996 35.5C32.1104 35.5 32.1211 35.5 32.1319 35.5C32.1426 35.5 32.1534 35.5 32.1642 35.5C32.1749 35.5 32.1857 35.5 32.1965 35.5C32.2073 35.5 32.2182 35.5 32.229 35.5C32.2398 35.5 32.2507 35.5 32.2615 35.5C32.2724 35.5 32.2832 35.5 32.2941 35.5C32.305 35.5 32.3159 35.5 32.3268 35.5C32.3377 35.5 32.3486 35.5 32.3595 35.5C32.3705 35.5 32.3814 35.5 32.3924 35.5C32.4033 35.5 32.4143 35.5 32.4253 35.5C32.4362 35.5 32.4472 35.5 32.4582 35.5C32.4692 35.5 32.4803 35.5 32.4913 35.5C32.5023 35.5 32.5133 35.5 32.5244 35.5C32.5354 35.5 32.5465 35.5 32.5576 35.5C32.5687 35.5 32.5797 35.5 32.5908 35.5C32.6019 35.5 32.6131 35.5 32.6242 35.5C32.6353 35.5 32.6464 35.5 32.6576 35.5C32.6687 35.5 32.6799 35.5 32.6911 35.5C32.7022 35.5 32.7134 35.5 32.7246 35.5C32.7358 35.5 32.747 35.5 32.7582 35.5C32.7694 35.5 32.7807 35.5 32.7919 35.5C32.8031 35.5 32.8144 35.5 32.8257 35.5C32.8369 35.5 32.8482 35.5 32.8595 35.5C32.8708 35.5 32.8821 35.5 32.8934 35.5C32.9047 35.5 32.916 35.5 32.9273 35.5C32.9387 35.5 32.95 35.5 32.9614 35.5C32.9727 35.5 32.9841 35.5 32.9955 35.5C33.0069 35.5 33.0183 35.5 33.0297 35.5C33.0411 35.5 33.0525 35.5 33.0639 35.5C33.0753 35.5 33.0868 35.5 33.0982 35.5C33.1096 35.5 33.1211 35.5 33.1326 35.5C33.144 35.5 33.1555 35.5 33.167 35.5C33.1785 35.5 33.19 35.5 33.2015 35.5C33.213 35.5 33.2246 35.5 33.2361 35.5C33.2476 35.5 33.2592 35.5 33.2708 35.5C33.2823 35.5 33.2939 35.5 33.3055 35.5C33.317 35.5 33.3286 35.5 33.3402 35.5C33.3518 35.5 33.3635 35.5 33.3751 35.5C33.3867 35.5 33.3983 35.5 33.41 35.5C33.4216 35.5 33.4333 35.5 33.445 35.5C33.4566 35.5 33.4683 35.5 33.48 35.5C33.4917 35.5 33.5034 35.5 33.5151 35.5C33.5268 35.5 33.5385 35.5 33.5503 35.5C33.562 35.5 33.5738 35.5 33.5855 35.5C33.5973 35.5 33.609 35.5 33.6208 35.5C33.6326 35.5 33.6444 35.5 33.6562 35.5C33.668 35.5 33.6798 35.5 33.6916 35.5C33.7034 35.5 33.7152 35.5 33.7271 35.5C33.7389 35.5 33.7508 35.5 33.7626 35.5C33.7745 35.5 33.7864 35.5 33.7982 35.5C33.8101 35.5 33.822 35.5 33.8339 35.5C33.8458 35.5 33.8577 35.5 33.8697 35.5C33.8816 35.5 33.8935 35.5 33.9055 35.5C33.9174 35.5 33.9294 35.5 33.9413 35.5C33.9533 35.5 33.9653 35.5 33.9772 35.5C33.9892 35.5 34.0012 35.5 34.0132 35.5C34.0252 35.5 34.0373 35.5 34.0493 35.5C34.0613 35.5 34.0733 35.5 34.0854 35.5C34.0974 35.5 34.1095 35.5 34.1216 35.5C34.1336 35.5 34.1457 35.5 34.1578 35.5C34.1699 35.5 34.182 35.5 34.1941 35.5C34.2062 35.5 34.2183 35.5 34.2304 35.5C34.2425 35.5 34.2547 35.5 34.2668 35.5C34.279 35.5 34.2911 35.5 34.3033 35.5C34.3154 35.5 34.3276 35.5 34.3398 35.5C34.352 35.5 34.3642 35.5 34.3764 35.5C34.3886 35.5 34.4008 35.5 34.413 35.5C34.4253 35.5 34.4375 35.5 34.4497 35.5C34.462 35.5 34.4742 35.5 34.4865 35.5C34.4987 35.5 34.511 35.5 34.5233 35.5C34.5356 35.5 34.5479 35.5 34.5602 35.5C34.5725 35.5 34.5848 35.5 34.5971 35.5C34.6094 35.5 34.6217 35.5 34.6341 35.5C34.6464 35.5 34.6588 35.5 34.6711 35.5C34.6835 35.5 34.6958 35.5 34.7082 35.5C34.7206 35.5 34.733 35.5 34.7454 35.5C34.7578 35.5 34.7702 35.5 34.7826 35.5C34.795 35.5 34.8074 35.5 34.8198 35.5C34.8323 35.5 34.8447 35.5 34.8572 35.5C34.8696 35.5 34.8821 35.5 34.8945 35.5C34.907 35.5 34.9195 35.5 34.932 35.5C34.9445 35.5 34.9569 35.5 34.9694 35.5C34.982 35.5 34.9945 35.5 35.007 35.5C35.0195 35.5 35.032 35.5 35.0446 35.5C35.0571 35.5 35.0697 35.5 35.0822 35.5C35.0948 35.5 35.1073 35.5 35.1199 35.5C35.1325 35.5 35.1451 35.5 35.1577 35.5C35.1703 35.5 35.1829 35.5 35.1955 35.5C35.2081 35.5 35.2207 35.5 35.2333 35.5C35.246 35.5 35.2586 35.5 35.2712 35.5C35.2839 35.5 35.2965 35.5 35.3092 35.5C35.3219 35.5 35.3345 35.5 35.3472 35.5C35.3599 35.5 35.3726 35.5 35.3853 35.5C35.398 35.5 35.4107 35.5 35.4234 35.5C35.4361 35.5 35.4488 35.5 35.4616 35.5C35.4743 35.5 35.487 35.5 35.4998 35.5C35.5125 35.5 35.5253 35.5 35.538 35.5C35.5508 35.5 35.5636 35.5 35.5764 35.5C35.5891 35.5 35.6019 35.5 35.6147 35.5C35.6275 35.5 35.6403 35.5 35.6531 35.5C35.666 35.5 35.6788 35.5 35.6916 35.5C35.7044 35.5 35.7173 35.5 35.7301 35.5C35.743 35.5 35.7558 35.5 35.7687 35.5C35.7815 35.5 35.7944 35.5 35.8073 35.5C35.8202 35.5 35.8331 35.5 35.846 35.5C35.8588 35.5 35.8717 35.5 35.8847 35.5C35.8976 35.5 35.9105 35.5 35.9234 35.5C35.9363 35.5 35.9493 35.5 35.9622 35.5C35.9752 35.5 35.9881 35.5 36.0011 35.5C36.014 35.5 36.027 35.5 36.04 35.5C36.0529 35.5 36.0659 35.5 36.0789 35.5C36.0919 35.5 36.1049 35.5 36.1179 35.5C36.1309 35.5 36.1439 35.5 36.1569 35.5C36.17 35.5 36.183 35.5 36.196 35.5C36.2091 35.5 36.2221 35.5 36.2351 35.5C36.2482 35.5 36.2613 35.5 36.2743 35.5C36.2874 35.5 36.3005 35.5 36.3135 35.5C36.3266 35.5 36.3397 35.5 36.3528 35.5C36.3659 35.5 36.379 35.5 36.3921 35.5C36.4052 35.5 36.4183 35.5 36.4315 35.5C36.4446 35.5 36.4577 35.5 36.4709 35.5C36.484 35.5 36.4971 35.5 36.5103 35.5C36.5235 35.5 36.5366 35.5 36.5498 35.5C36.563 35.5 36.5761 35.5 36.5893 35.5C36.6025 35.5 36.6157 35.5 36.6289 35.5C36.6421 35.5 36.6553 35.5 36.6685 35.5C36.6817 35.5 36.6949 35.5 36.7082 35.5C36.7214 35.5 36.7346 35.5 36.7478 35.5C36.7611 35.5 36.7743 35.5 36.7876 35.5C36.8008 35.5 36.8141 35.5 36.8274 35.5C36.8406 35.5 36.8539 35.5 36.8672 35.5C36.8805 35.5 36.8938 35.5 36.9071 35.5C36.9203 35.5 36.9337 35.5 36.947 35.5C36.9603 35.5 36.9736 35.5 36.9869 35.5C37.0002 35.5 37.0136 35.5 37.0269 35.5C37.0402 35.5 37.0536 35.5 37.0669 35.5C37.0803 35.5 37.0936 35.5 37.107 35.5C37.1203 35.5 37.1337 35.5 37.1471 35.5C37.1605 35.5 37.1738 35.5 37.1872 35.5C37.2006 35.5 37.214 35.5 37.2274 35.5C37.2408 35.5 37.2542 35.5 37.2676 35.5C37.281 35.5 37.2945 35.5 37.3079 35.5C37.3213 35.5 37.3348 35.5 37.3482 35.5C37.3616 35.5 37.3751 35.5 37.3885 35.5C37.402 35.5 37.4154 35.5 37.4289 35.5C37.4424 35.5 37.4558 35.5 37.4693 35.5C37.4828 35.5 37.4963 35.5 37.5098 35.5C37.5233 35.5 37.5368 35.5 37.5503 35.5C37.5638 35.5 37.5773 35.5 37.5908 35.5C37.6043 35.5 37.6178 35.5 37.6313 35.5C37.6449 35.5 37.6584 35.5 37.6719 35.5C37.6855 35.5 37.699 35.5 37.7126 35.5C37.7261 35.5 37.7397 35.5 37.7532 35.5C37.7668 35.5 37.7804 35.5 37.7939 35.5C37.8075 35.5 37.8211 35.5 37.8347 35.5C37.8483 35.5 37.8618 35.5 37.8754 35.5C37.889 35.5 37.9026 35.5 37.9162 35.5C37.9299 35.5 37.9435 35.5 37.9571 35.5C37.9707 35.5 37.9843 35.5 37.998 35.5C38.0116 35.5 38.0252 35.5 38.0389 35.5C38.0525 35.5 38.0662 35.5 38.0798 35.5C38.0935 35.5 38.1071 35.5 38.1208 35.5C38.1345 35.5 38.1481 35.5 38.1618 35.5C38.1755 35.5 38.1892 35.5 38.2028 35.5C38.2165 35.5 38.2302 35.5 38.2439 35.5C38.2576 35.5 38.2713 35.5 38.285 35.5C38.2987 35.5 38.3124 35.5 38.3262 35.5C38.3399 35.5 38.3536 35.5 38.3673 35.5C38.3811 35.5 38.3948 35.5 38.4085 35.5C38.4223 35.5 38.436 35.5 38.4498 35.5C38.4635 35.5 38.4773 35.5 38.491 35.5C38.5048 35.5 38.5185 35.5 38.5323 35.5C38.5461 35.5 38.5599 35.5 38.5736 35.5C38.5874 35.5 38.6012 35.5 38.615 35.5C38.6288 35.5 38.6426 35.5 38.6564 35.5C38.6702 35.5 38.684 35.5 38.6978 35.5C38.7116 35.5 38.7254 35.5 38.7392 35.5C38.753 35.5 38.7669 35.5 38.7807 35.5C38.7945 35.5 38.8084 35.5 38.8222 35.5C38.836 35.5 38.8499 35.5 38.8637 35.5C38.8776 35.5 38.8914 35.5 38.9053 35.5C38.9191 35.5 38.933 35.5 38.9469 35.5C38.9607 35.5 38.9746 35.5 38.9885 35.5C39.0024 35.5 39.0162 35.5 39.0301 35.5C39.044 35.5 39.0579 35.5 39.0718 35.5C39.0857 35.5 39.0996 35.5 39.1135 35.5C39.1274 35.5 39.1413 35.5 39.1552 35.5C39.1691 35.5 39.183 35.5 39.1969 35.5C39.2109 35.5 39.2248 35.5 39.2387 35.5C39.2526 35.5 39.2666 35.5 39.2805 35.5C39.2945 35.5 39.3084 35.5 39.3223 35.5C39.3363 35.5 39.3502 35.5 39.3642 35.5C39.3781 35.5 39.3921 35.5 39.4061 35.5C39.42 35.5 39.434 35.5 39.448 35.5C39.4619 35.5 39.4759 35.5 39.4899 35.5C39.5039 35.5 39.5179 35.5 39.5318 35.5C39.5458 35.5 39.5598 35.5 39.5738 35.5C39.5878 35.5 39.6018 35.5 39.6158 35.5C39.6298 35.5 39.6438 35.5 39.6578 35.5C39.6718 35.5 39.6859 35.5 39.6999 35.5C39.7139 35.5 39.7279 35.5 39.7419 35.5C39.756 35.5 39.77 35.5 39.784 35.5C39.7981 35.5 39.8121 35.5 39.8261 35.5C39.8402 35.5 39.8542 35.5 39.8683 35.5C39.8823 35.5 39.8964 35.5 39.9104 35.5C39.9245 35.5 39.9385 35.5 39.9526 35.5C39.9667 35.5 39.9807 35.5 39.9948 35.5C40.0089 35.5 40.0229 35.5 40.037 35.5C40.0511 35.5 40.0652 35.5 40.0793 35.5C40.0933 35.5 40.1074 35.5 40.1215 35.5C40.1356 35.5 40.1497 35.5 40.1638 35.5C40.1779 35.5 40.192 35.5 40.2061 35.5C40.2202 35.5 40.2343 35.5 40.2484 35.5C40.2625 35.5 40.2766 35.5 40.2908 35.5C40.3049 35.5 40.319 35.5 40.3331 35.5C40.3472 35.5 40.3614 35.5 40.3755 35.5C40.3896 35.5 40.4038 35.5 40.4179 35.5C40.432 35.5 40.4462 35.5 40.4603 35.5C40.4745 35.5 40.4886 35.5 40.5027 35.5C40.5169 35.5 40.531 35.5 40.5452 35.5C40.5593 35.5 40.5735 35.5 40.5877 35.5C40.6018 35.5 40.616 35.5 40.6302 35.5C40.6443 35.5 40.6585 35.5 40.6727 35.5C40.6868 35.5 40.701 35.5 40.7152 35.5C40.7294 35.5 40.7435 35.5 40.7577 35.5C40.7719 35.5 40.7861 35.5 40.8003 35.5C40.8145 35.5 40.8286 35.5 40.8428 35.5C40.857 35.5 40.8712 35.5 40.8854 35.5C40.8996 35.5 40.9138 35.5 40.928 35.5C40.9422 35.5 40.9564 35.5 40.9706 35.5C40.9848 35.5 40.9991 35.5 41.0133 35.5C41.0275 35.5 41.0417 35.5 41.0559 35.5C41.0701 35.5 41.0844 35.5 41.0986 35.5C41.1128 35.5 41.127 35.5 41.1413 35.5C41.1555 35.5 41.1697 35.5 41.1839 35.5C41.1982 35.5 41.2124 35.5 41.2266 35.5C41.2409 35.5 41.2551 35.5 41.2694 35.5C41.2836 35.5 41.2978 35.5 41.3121 35.5C41.3263 35.5 41.3406 35.5 41.3548 35.5C41.3691 35.5 41.3833 35.5 41.3976 35.5C41.4118 35.5 41.4261 35.5 41.4404 35.5C41.4546 35.5 41.4689 35.5 41.4831 35.5C41.4974 35.5 41.5117 35.5 41.5259 35.5C41.5402 35.5 41.5545 35.5 41.5687 35.5C41.583 35.5 41.5973 35.5 41.6115 35.5C41.6258 35.5 41.6401 35.5 41.6544 35.5C41.6686 35.5 41.6829 35.5 41.6972 35.5C41.7115 35.5 41.7258 35.5 41.7401 35.5C41.7543 35.5 41.7686 35.5 41.7829 35.5C41.7972 35.5 41.8115 35.5 41.8258 35.5C41.8401 35.5 41.8544 35.5 41.8687 35.5C41.8829 35.5 41.8972 35.5 41.9115 35.5C41.9258 35.5 41.9401 35.5 41.9544 35.5C41.9687 35.5 41.983 35.5 41.9973 35.5C42.0116 35.5 42.0259 35.5 42.0403 35.5C42.0546 35.5 42.0689 35.5 42.0832 35.5C42.0975 35.5 42.1118 35.5 42.1261 35.5C42.1404 35.5 42.1547 35.5 42.169 35.5C42.1834 35.5 42.1977 35.5 42.212 35.5C42.2263 35.5 42.2406 35.5 42.2549 35.5C42.2693 35.5 42.2836 35.5 42.2979 35.5C42.3122 35.5 42.3265 35.5 42.3409 35.5C42.3552 35.5 42.3695 35.5 42.3838 35.5C42.3982 35.5 42.4125 35.5 42.4268 35.5C42.4411 35.5 42.4555 35.5 42.4698 35.5C42.4841 35.5 42.4985 35.5 42.5128 35.5C42.5271 35.5 42.5415 35.5 42.5558 35.5C42.5701 35.5 42.5845 35.5 42.5988 35.5C42.6131 35.5 42.6275 35.5 42.6418 35.5C42.6561 35.5 42.6705 35.5 42.6848 35.5C42.6992 35.5 42.7135 35.5 42.7278 35.5C42.7422 35.5 42.7565 35.5 42.7709 35.5C42.7852 35.5 42.7995 35.5 42.8139 35.5C42.8282 35.5 42.8426 35.5 42.8569 35.5C42.8713 35.5 42.8856 35.5 42.8999 35.5C42.9143 35.5 42.9286 35.5 42.943 35.5C42.9573 35.5 42.9717 35.5 42.986 35.5C43.0004 35.5 43.0147 35.5 43.0291 35.5C43.0434 35.5 43.0578 35.5 43.0721 35.5C43.0864 35.5 43.1008 35.5 43.1151 35.5C43.1295 35.5 43.1438 35.5 43.1582 35.5C43.1725 35.5 43.1869 35.5 43.2012 35.5C43.2156 35.5 43.2299 35.5 43.2443 35.5C43.2586 35.5 43.273 35.5 43.2873 35.5C43.3017 35.5 43.316 35.5 43.3304 35.5C43.3447 35.5 43.3591 35.5 43.3734 35.5C43.3878 35.5 43.4021 35.5 43.4165 35.5C43.4308 35.5 43.4452 35.5 43.4595 35.5C43.4739 35.5 43.4883 35.5 43.5026 35.5C43.517 35.5 43.5313 35.5 43.5457 35.5C43.56 35.5 43.5744 35.5 43.5887 35.5C43.6031 35.5 43.6174 35.5 43.6318 35.5C43.6461 35.5 43.6605 35.5 43.6748 35.5C43.6892 35.5 43.7035 35.5 43.7178 35.5C43.7322 35.5 43.7465 35.5 43.7609 35.5C43.7752 35.5 43.7896 35.5 43.8039 35.5C43.8183 35.5 43.8326 35.5 43.847 35.5C43.8613 35.5 43.8757 35.5 43.89 35.5C43.9044 35.5 43.9187 35.5 43.9331 35.5C43.9474 35.5 43.9617 35.5 43.9761 35.5C43.9904 35.5 44.0048 35.5 44.0191 35.5C44.0335 35.5 44.0478 35.5 44.0621 35.5C44.0765 35.5 44.0908 35.5 44.1052 35.5C44.1195 35.5 44.1338 35.5 44.1482 35.5C44.1625 35.5 44.1769 35.5 44.1912 35.5C44.2055 35.5 44.2199 35.5 44.2342 35.5C44.2485 35.5 44.2629 35.5 44.2772 35.5C44.2915 35.5 44.3059 35.5 44.3202 35.5C44.3345 35.5 44.3489 35.5 44.3632 35.5C44.3775 35.5 44.3918 35.5 44.4062 35.5C44.4205 35.5 44.4348 35.5 44.4492 35.5C44.4635 35.5 44.4778 35.5 44.4921 35.5C44.5064 35.5 44.5208 35.5 44.5351 35.5C44.5494 35.5 44.5637 35.5 44.5781 35.5C44.5924 35.5 44.6067 35.5 44.621 35.5C44.6353 35.5 44.6496 35.5 44.664 35.5C44.6783 35.5 44.6926 35.5 44.7069 35.5C44.7212 35.5 44.7355 35.5 44.7498 35.5C44.7641 35.5 44.7784 35.5 44.7927 35.5C44.807 35.5 44.8214 35.5 44.8357 35.5C44.85 35.5 44.8643 35.5 44.8786 35.5C44.8929 35.5 44.9072 35.5 44.9215 35.5C44.9358 35.5 44.95 35.5 44.9643 35.5C44.9786 35.5 44.9929 35.5 45.0072 35.5C45.0215 35.5 45.0358 35.5 45.0501 35.5C45.0644 35.5 45.0787 35.5 45.0929 35.5C45.1072 35.5 45.1215 35.5 45.1358 35.5C45.1501 35.5 45.1643 35.5 45.1786 35.5C45.1929 35.5 45.2072 35.5 45.2215 35.5C45.2357 35.5 45.25 35.5 45.2643 35.5C45.2785 35.5 45.2928 35.5 45.3071 35.5C45.3213 35.5 45.3356 35.5 45.3499 35.5C45.3641 35.5 45.3784 35.5 45.3926 35.5C45.4069 35.5 45.4212 35.5 45.4354 35.5C45.4497 35.5 45.4639 35.5 45.4782 35.5C45.4924 35.5 45.5067 35.5 45.5209 35.5C45.5351 35.5 45.5494 35.5 45.5636 35.5C45.5779 35.5 45.5921 35.5 45.6064 35.5C45.6206 35.5 45.6348 35.5 45.6491 35.5C45.6633 35.5 45.6775 35.5 45.6917 35.5C45.706 35.5 45.7202 35.5 45.7344 35.5C45.7486 35.5 45.7629 35.5 45.7771 35.5C45.7913 35.5 45.8055 35.5 45.8197 35.5C45.8339 35.5 45.8481 35.5 45.8624 35.5C45.8766 35.5 45.8908 35.5 45.905 35.5C45.9192 35.5 45.9334 35.5 45.9476 35.5C45.9618 35.5 45.976 35.5 45.9902 35.5C46.0044 35.5 46.0185 35.5 46.0327 35.5C46.0469 35.5 46.0611 35.5 46.0753 35.5C46.0895 35.5 46.1036 35.5 46.1178 35.5C46.132 35.5 46.1462 35.5 46.1603 35.5C46.1745 35.5 46.1887 35.5 46.2028 35.5C46.217 35.5 46.2312 35.5 46.2453 35.5C46.2595 35.5 46.2737 35.5 46.2878 35.5C46.302 35.5 46.3161 35.5 46.3303 35.5C46.3444 35.5 46.3585 35.5 46.3727 35.5C46.3868 35.5 46.401 35.5 46.4151 35.5C46.4292 35.5 46.4434 35.5 46.4575 35.5C46.4716 35.5 46.4858 35.5 46.4999 35.5C46.514 35.5 46.5281 35.5 46.5422 35.5C46.5564 35.5 46.5705 35.5 46.5846 35.5C46.5987 35.5 46.6128 35.5 46.6269 35.5C46.641 35.5 46.6551 35.5 46.6692 35.5C46.6833 35.5 46.6974 35.5 46.7115 35.5C46.7256 35.5 46.7397 35.5 46.7537 35.5C46.7678 35.5 46.7819 35.5 46.796 35.5C46.8101 35.5 46.8241 35.5 46.8382 35.5C46.8523 35.5 46.8663 35.5 46.8804 35.5V33.5ZM35.3804 27.5H45.8804V25.5H35.3804V27.5ZM29.133 35.1585L36.133 27.1585L34.6278 25.8415L27.6278 33.8415L29.133 35.1585ZM27.6122 33.8598L25.1122 36.8598L26.6486 38.1402L29.1486 35.1402L27.6122 33.8598ZM15.8804 27.5H35.3804V25.5H15.8804V27.5ZM26.6203 36.8273L23.8931 33.8273L22.4132 35.1727L25.1405 38.1727L26.6203 36.8273ZM3.9804 33.7C3.06899 33.0164 2.16818 31.9269 2.02118 30.852C1.9534 30.3564 2.03876 29.8321 2.41088 29.2774C2.79684 28.702 3.52552 28.0455 4.82761 27.3944L3.93319 25.6056C2.43528 26.3545 1.38896 27.2105 0.749921 28.1633C0.0970398 29.1366 -0.0925965 30.1561 0.0396221 31.123C0.292625 32.9731 1.69181 34.4836 2.7804 35.3L3.9804 33.7ZM4.8804 27.5H8.88086V25.5H4.8804V27.5ZM8.88086 27.5H15.8804V25.5H8.88086V27.5ZM23.1531 33.5H13.8809V35.5H23.1531V33.5ZM13.8809 33.5H3.3804V35.5H13.8809V33.5ZM8.03286 27.03L13.0329 35.03L14.7289 33.97L9.72886 25.97L8.03286 27.03ZM23.8931 33.8273L18.6208 28.0278L17.1409 29.3732L22.4132 35.1727L23.8931 33.8273ZM18.6208 28.0278L16.6203 25.8273L15.1405 27.1727L17.1409 29.3732L18.6208 28.0278ZM17.0577 28.1327L13.0577 33.9322L14.704 35.0678L18.704 29.2683L17.0577 28.1327ZM8.38062 49.5C8.39234 49.5 8.40411 49.5 8.41593 49.5C8.42775 49.5 8.43962 49.5 8.45153 49.5C8.46345 49.5 8.47542 49.5 8.48744 49.5C8.49946 49.5 8.51153 49.5 8.52364 49.5C8.53576 49.5 8.54793 49.5 8.56014 49.5C8.57236 49.5 8.58463 49.5 8.59694 49.5C8.60925 49.5 8.62162 49.5 8.63403 49.5C8.64644 49.5 8.65891 49.5 8.67142 49.5C8.68393 49.5 8.69649 49.5 8.7091 49.5C8.72171 49.5 8.73436 49.5 8.74707 49.5C8.75977 49.5 8.77253 49.5 8.78533 49.5C8.79813 49.5 8.81098 49.5 8.82388 49.5C8.83678 49.5 8.84973 49.5 8.86272 49.5C8.87572 49.5 8.88876 49.5 8.90185 49.5C8.91494 49.5 8.92808 49.5 8.94126 49.5C8.95445 49.5 8.96768 49.5 8.98096 49.5C8.99424 49.5 9.00757 49.5 9.02095 49.5C9.03432 49.5 9.04775 49.5 9.06122 49.5C9.07469 49.5 9.0882 49.5 9.10177 49.5C9.11533 49.5 9.12894 49.5 9.1426 49.5C9.15626 49.5 9.16996 49.5 9.18371 49.5C9.19746 49.5 9.21126 49.5 9.2251 49.5C9.23895 49.5 9.25284 49.5 9.26677 49.5C9.28071 49.5 9.29469 49.5 9.30872 49.5C9.32275 49.5 9.33682 49.5 9.35094 49.5C9.36507 49.5 9.37923 49.5 9.39344 49.5C9.40766 49.5 9.42191 49.5 9.43622 49.5C9.45052 49.5 9.46487 49.5 9.47926 49.5C9.49366 49.5 9.50809 49.5 9.52258 49.5C9.53706 49.5 9.55159 49.5 9.56617 49.5C9.58074 49.5 9.59536 49.5 9.61003 49.5C9.62469 49.5 9.6394 49.5 9.65415 49.5C9.66891 49.5 9.68371 49.5 9.69855 49.5C9.71339 49.5 9.72828 49.5 9.74321 49.5C9.75814 49.5 9.77312 49.5 9.78814 49.5C9.80316 49.5 9.81822 49.5 9.83333 49.5C9.84844 49.5 9.86359 49.5 9.87878 49.5C9.89398 49.5 9.90922 49.5 9.9245 49.5C9.93979 49.5 9.95511 49.5 9.97048 49.5C9.98585 49.5 10.0013 49.5 10.0167 49.5C10.0322 49.5 10.0477 49.5 10.0632 49.5C10.0788 49.5 10.0943 49.5 10.11 49.5C10.1256 49.5 10.1413 49.5 10.157 49.5C10.1727 49.5 10.1885 49.5 10.2043 49.5C10.2201 49.5 10.2359 49.5 10.2518 49.5C10.2677 49.5 10.2836 49.5 10.2996 49.5C10.3155 49.5 10.3315 49.5 10.3476 49.5C10.3637 49.5 10.3798 49.5 10.3959 49.5C10.412 49.5 10.4282 49.5 10.4444 49.5C10.4606 49.5 10.4769 49.5 10.4932 49.5C10.5095 49.5 10.5259 49.5 10.5422 49.5C10.5586 49.5 10.5751 49.5 10.5915 49.5C10.608 49.5 10.6245 49.5 10.6411 49.5C10.6576 49.5 10.6742 49.5 10.6908 49.5C10.7075 49.5 10.7241 49.5 10.7409 49.5C10.7576 49.5 10.7743 49.5 10.7911 49.5C10.8079 49.5 10.8247 49.5 10.8416 49.5C10.8585 49.5 10.8754 49.5 10.8924 49.5C10.9093 49.5 10.9263 49.5 10.9434 49.5C10.9604 49.5 10.9775 49.5 10.9946 49.5C11.0117 49.5 11.0289 49.5 11.046 49.5C11.0632 49.5 11.0805 49.5 11.0978 49.5C11.115 49.5 11.1323 49.5 11.1497 49.5C11.167 49.5 11.1844 49.5 11.2019 49.5C11.2193 49.5 11.2368 49.5 11.2543 49.5C11.2718 49.5 11.2893 49.5 11.3069 49.5C11.3245 49.5 11.3421 49.5 11.3598 49.5C11.3775 49.5 11.3952 49.5 11.4129 49.5C11.4306 49.5 11.4484 49.5 11.4662 49.5C11.484 49.5 11.5019 49.5 11.5198 49.5C11.5377 49.5 11.5556 49.5 11.5736 49.5C11.5915 49.5 11.6096 49.5 11.6276 49.5C11.6456 49.5 11.6637 49.5 11.6818 49.5C11.7 49.5 11.7181 49.5 11.7363 49.5C11.7545 49.5 11.7727 49.5 11.791 49.5C11.8093 49.5 11.8276 49.5 11.8459 49.5C11.8643 49.5 11.8826 49.5 11.9011 49.5C11.9195 49.5 11.9379 49.5 11.9564 49.5C11.9749 49.5 11.9934 49.5 12.012 49.5C12.0305 49.5 12.0491 49.5 12.0678 49.5C12.0864 49.5 12.1051 49.5 12.1238 49.5C12.1425 49.5 12.1612 49.5 12.18 49.5C12.1988 49.5 12.2176 49.5 12.2365 49.5C12.2553 49.5 12.2742 49.5 12.2931 49.5C12.312 49.5 12.331 49.5 12.35 49.5C12.369 49.5 12.388 49.5 12.4071 49.5C12.4261 49.5 12.4452 49.5 12.4644 49.5C12.4835 49.5 12.5027 49.5 12.5219 49.5C12.5411 49.5 12.5603 49.5 12.5796 49.5C12.5989 49.5 12.6182 49.5 12.6375 49.5C12.6568 49.5 12.6762 49.5 12.6956 49.5C12.715 49.5 12.7345 49.5 12.754 49.5C12.7734 49.5 12.793 49.5 12.8125 49.5C12.832 49.5 12.8516 49.5 12.8712 49.5C12.8909 49.5 12.9105 49.5 12.9302 49.5C12.9499 49.5 12.9696 49.5 12.9893 49.5C13.0091 49.5 13.0289 49.5 13.0487 49.5C13.0685 49.5 13.0883 49.5 13.1082 49.5C13.1281 49.5 13.148 49.5 13.168 49.5C13.1879 49.5 13.2079 49.5 13.2279 49.5C13.2479 49.5 13.268 49.5 13.288 49.5C13.3081 49.5 13.3282 49.5 13.3484 49.5C13.3685 49.5 13.3887 49.5 13.4089 49.5C13.4291 49.5 13.4494 49.5 13.4696 49.5C13.4899 49.5 13.5102 49.5 13.5305 49.5C13.5509 49.5 13.5712 49.5 13.5916 49.5C13.612 49.5 13.6325 49.5 13.6529 49.5C13.6734 49.5 13.6939 49.5 13.7144 49.5C13.7349 49.5 13.7555 49.5 13.7761 49.5C13.7967 49.5 13.8173 49.5 13.8379 49.5C13.8586 49.5 13.8793 49.5 13.9 49.5C13.9207 49.5 13.9414 49.5 13.9622 49.5C13.983 49.5 14.0038 49.5 14.0246 49.5C14.0455 49.5 14.0663 49.5 14.0872 49.5C14.1081 49.5 14.129 49.5 14.15 49.5C14.1709 49.5 14.1919 49.5 14.2129 49.5C14.234 49.5 14.255 49.5 14.2761 49.5C14.2972 49.5 14.3183 49.5 14.3394 49.5C14.3605 49.5 14.3817 49.5 14.4029 49.5C14.4241 49.5 14.4453 49.5 14.4666 49.5C14.4878 49.5 14.5091 49.5 14.5304 49.5C14.5517 49.5 14.5731 49.5 14.5944 49.5C14.6158 49.5 14.6372 49.5 14.6586 49.5C14.68 49.5 14.7015 49.5 14.723 49.5C14.7445 49.5 14.766 49.5 14.7875 49.5C14.809 49.5 14.8306 49.5 14.8522 49.5C14.8738 49.5 14.8954 49.5 14.9171 49.5C14.9387 49.5 14.9604 49.5 14.9821 49.5C15.0038 49.5 15.0256 49.5 15.0473 49.5C15.0691 49.5 15.0909 49.5 15.1127 49.5C15.1345 49.5 15.1564 49.5 15.1782 49.5C15.2001 49.5 15.222 49.5 15.2439 49.5C15.2659 49.5 15.2878 49.5 15.3098 49.5C15.3318 49.5 15.3538 49.5 15.3758 49.5C15.3979 49.5 15.4199 49.5 15.442 49.5C15.4641 49.5 15.4862 49.5 15.5084 49.5C15.5305 49.5 15.5527 49.5 15.5749 49.5C15.5971 49.5 15.6193 49.5 15.6415 49.5C15.6638 49.5 15.6861 49.5 15.7084 49.5C15.7307 49.5 15.753 49.5 15.7753 49.5C15.7977 49.5 15.8201 49.5 15.8425 49.5C15.8649 49.5 15.8873 49.5 15.9097 49.5C15.9322 49.5 15.9547 49.5 15.9772 49.5C15.9997 49.5 16.0222 49.5 16.0448 49.5C16.0673 49.5 16.0899 49.5 16.1125 49.5C16.1351 49.5 16.1577 49.5 16.1804 49.5C16.203 49.5 16.2257 49.5 16.2484 49.5C16.2711 49.5 16.2938 49.5 16.3166 49.5C16.3393 49.5 16.3621 49.5 16.3849 49.5C16.4077 49.5 16.4305 49.5 16.4534 49.5C16.4762 49.5 16.4991 49.5 16.522 49.5C16.5449 49.5 16.5678 49.5 16.5908 49.5C16.6137 49.5 16.6367 49.5 16.6597 49.5C16.6826 49.5 16.7057 49.5 16.7287 49.5C16.7517 49.5 16.7748 49.5 16.7979 49.5C16.821 49.5 16.8441 49.5 16.8672 49.5C16.8903 49.5 16.9135 49.5 16.9366 49.5C16.9598 49.5 16.983 49.5 17.0062 49.5C17.0295 49.5 17.0527 49.5 17.076 49.5C17.0992 49.5 17.1225 49.5 17.1458 49.5C17.1691 49.5 17.1925 49.5 17.2158 49.5C17.2392 49.5 17.2625 49.5 17.2859 49.5C17.3093 49.5 17.3328 49.5 17.3562 49.5C17.3796 49.5 17.4031 49.5 17.4266 49.5C17.4501 49.5 17.4736 49.5 17.4971 49.5C17.5206 49.5 17.5442 49.5 17.5678 49.5C17.5913 49.5 17.6149 49.5 17.6385 49.5C17.6621 49.5 17.6858 49.5 17.7094 49.5C17.7331 49.5 17.7567 49.5 17.7804 49.5C17.8041 49.5 17.8279 49.5 17.8516 49.5C17.8753 49.5 17.8991 49.5 17.9229 49.5C17.9466 49.5 17.9704 49.5 17.9942 49.5C18.0181 49.5 18.0419 49.5 18.0658 49.5C18.0896 49.5 18.1135 49.5 18.1374 49.5C18.1613 49.5 18.1852 49.5 18.2091 49.5C18.2331 49.5 18.257 49.5 18.281 49.5C18.305 49.5 18.329 49.5 18.353 49.5C18.377 49.5 18.401 49.5 18.4251 49.5C18.4491 49.5 18.4732 49.5 18.4973 49.5C18.5214 49.5 18.5455 49.5 18.5696 49.5C18.5938 49.5 18.6179 49.5 18.6421 49.5C18.6662 49.5 18.6904 49.5 18.7146 49.5C18.7388 49.5 18.763 49.5 18.7873 49.5C18.8115 49.5 18.8358 49.5 18.8601 49.5C18.8843 49.5 18.9086 49.5 18.9329 49.5C18.9572 49.5 18.9816 49.5 19.0059 49.5C19.0303 49.5 19.0546 49.5 19.079 49.5C19.1034 49.5 19.1278 49.5 19.1522 49.5C19.1766 49.5 19.201 49.5 19.2255 49.5C19.2499 49.5 19.2744 49.5 19.2989 49.5C19.3234 49.5 19.3479 49.5 19.3724 49.5C19.3969 49.5 19.4215 49.5 19.446 49.5C19.4706 49.5 19.4951 49.5 19.5197 49.5C19.5443 49.5 19.5689 49.5 19.5935 49.5C19.6181 49.5 19.6428 49.5 19.6674 49.5C19.6921 49.5 19.7167 49.5 19.7414 49.5C19.7661 49.5 19.7908 49.5 19.8155 49.5C19.8402 49.5 19.8649 49.5 19.8897 49.5C19.9144 49.5 19.9392 49.5 19.964 49.5C19.9887 49.5 20.0135 49.5 20.0383 49.5C20.0632 49.5 20.088 49.5 20.1128 49.5C20.1376 49.5 20.1625 49.5 20.1874 49.5C20.2122 49.5 20.2371 49.5 20.262 49.5C20.2869 49.5 20.3118 49.5 20.3367 49.5C20.3617 49.5 20.3866 49.5 20.4116 49.5C20.4365 49.5 20.4615 49.5 20.4865 49.5C20.5114 49.5 20.5364 49.5 20.5614 49.5C20.5865 49.5 20.6115 49.5 20.6365 49.5C20.6616 49.5 20.6866 49.5 20.7117 49.5C20.7367 49.5 20.7618 49.5 20.7869 49.5C20.812 49.5 20.8371 49.5 20.8622 49.5C20.8874 49.5 20.9125 49.5 20.9376 49.5C20.9628 49.5 20.9879 49.5 21.0131 49.5C21.0383 49.5 21.0635 49.5 21.0887 49.5C21.1139 49.5 21.1391 49.5 21.1643 49.5C21.1895 49.5 21.2148 49.5 21.24 49.5C21.2653 49.5 21.2905 49.5 21.3158 49.5C21.3411 49.5 21.3663 49.5 21.3916 49.5C21.4169 49.5 21.4422 49.5 21.4676 49.5C21.4929 49.5 21.5182 49.5 21.5436 49.5C21.5689 49.5 21.5943 49.5 21.6196 49.5C21.645 49.5 21.6704 49.5 21.6958 49.5C21.7212 49.5 21.7466 49.5 21.772 49.5C21.7974 49.5 21.8228 49.5 21.8482 49.5C21.8737 49.5 21.8991 49.5 21.9246 49.5C21.95 49.5 21.9755 49.5 22.001 49.5C22.0265 49.5 22.052 49.5 22.0775 49.5C22.103 49.5 22.1285 49.5 22.154 49.5C22.1795 49.5 22.205 49.5 22.2306 49.5C22.2561 49.5 22.2817 49.5 22.3072 49.5C22.3328 49.5 22.3584 49.5 22.3839 49.5C22.4095 49.5 22.4351 49.5 22.4607 49.5C22.4863 49.5 22.5119 49.5 22.5375 49.5C22.5632 49.5 22.5888 49.5 22.6144 49.5C22.6401 49.5 22.6657 49.5 22.6914 49.5C22.717 49.5 22.7427 49.5 22.7684 49.5C22.794 49.5 22.8197 49.5 22.8454 49.5C22.8711 49.5 22.8968 49.5 22.9225 49.5C22.9482 49.5 22.9739 49.5 22.9997 49.5C23.0254 49.5 23.0511 49.5 23.0769 49.5C23.1026 49.5 23.1284 49.5 23.1541 49.5C23.1799 49.5 23.2057 49.5 23.2314 49.5C23.2572 49.5 23.283 49.5 23.3088 49.5C23.3346 49.5 23.3604 49.5 23.3862 49.5C23.412 49.5 23.4378 49.5 23.4636 49.5C23.4894 49.5 23.5153 49.5 23.5411 49.5C23.5669 49.5 23.5928 49.5 23.6186 49.5C23.6445 49.5 23.6703 49.5 23.6962 49.5C23.7221 49.5 23.7479 49.5 23.7738 49.5C23.7997 49.5 23.8256 49.5 23.8514 49.5C23.8773 49.5 23.9032 49.5 23.9291 49.5C23.955 49.5 23.9809 49.5 24.0069 49.5C24.0328 49.5 24.0587 49.5 24.0846 49.5C24.1105 49.5 24.1365 49.5 24.1624 49.5C24.1884 49.5 24.2143 49.5 24.2403 49.5C24.2662 49.5 24.2922 49.5 24.3181 49.5C24.3441 49.5 24.37 49.5 24.396 49.5C24.422 49.5 24.448 49.5 24.4739 49.5C24.4999 49.5 24.5259 49.5 24.5519 49.5C24.5779 49.5 24.6039 49.5 24.6299 49.5C24.6559 49.5 24.6819 49.5 24.7079 49.5C24.7339 49.5 24.7599 49.5 24.786 49.5C24.812 49.5 24.838 49.5 24.864 49.5C24.8901 49.5 24.9161 49.5 24.9421 49.5C24.9682 49.5 24.9942 49.5 25.0202 49.5C25.0463 49.5 25.0723 49.5 25.0984 49.5C25.1244 49.5 25.1505 49.5 25.1765 49.5C25.2026 49.5 25.2287 49.5 25.2547 49.5C25.2808 49.5 25.3069 49.5 25.3329 49.5C25.359 49.5 25.3851 49.5 25.4112 49.5C25.4372 49.5 25.4633 49.5 25.4894 49.5C25.5155 49.5 25.5416 49.5 25.5677 49.5C25.5937 49.5 25.6198 49.5 25.6459 49.5C25.672 49.5 25.6981 49.5 25.7242 49.5C25.7503 49.5 25.7764 49.5 25.8025 49.5C25.8286 49.5 25.8547 49.5 25.8808 49.5C25.9069 49.5 25.933 49.5 25.9592 49.5C25.9853 49.5 26.0114 49.5 26.0375 49.5C26.0636 49.5 26.0897 49.5 26.1158 49.5C26.142 49.5 26.1681 49.5 26.1942 49.5C26.2203 49.5 26.2464 49.5 26.2726 49.5C26.2987 49.5 26.3248 49.5 26.3509 49.5C26.377 49.5 26.4032 49.5 26.4293 49.5C26.4554 49.5 26.4815 49.5 26.5077 49.5C26.5338 49.5 26.5599 49.5 26.586 49.5C26.6122 49.5 26.6383 49.5 26.6644 49.5C26.6906 49.5 26.7167 49.5 26.7428 49.5C26.7689 49.5 26.7951 49.5 26.8212 49.5C26.8473 49.5 26.8734 49.5 26.8996 49.5C26.9257 49.5 26.9518 49.5 26.978 49.5C27.0041 49.5 27.0302 49.5 27.0563 49.5C27.0825 49.5 27.1086 49.5 27.1347 49.5C27.1608 49.5 27.1869 49.5 27.2131 49.5C27.2392 49.5 27.2653 49.5 27.2914 49.5C27.3175 49.5 27.3437 49.5 27.3698 49.5C27.3959 49.5 27.422 49.5 27.4481 49.5C27.4742 49.5 27.5003 49.5 27.5265 49.5C27.5526 49.5 27.5787 49.5 27.6048 49.5C27.6309 49.5 27.657 49.5 27.6831 49.5C27.7092 49.5 27.7353 49.5 27.7614 49.5C27.7875 49.5 27.8136 49.5 27.8397 49.5C27.8658 49.5 27.8918 49.5 27.9179 49.5C27.944 49.5 27.9701 49.5 27.9962 49.5C28.0223 49.5 28.0484 49.5 28.0744 49.5C28.1005 49.5 28.1266 49.5 28.1526 49.5C28.1787 49.5 28.2048 49.5 28.2308 49.5C28.2569 49.5 28.283 49.5 28.309 49.5C28.3351 49.5 28.3611 49.5 28.3872 49.5C28.4132 49.5 28.4393 49.5 28.4653 49.5C28.4914 49.5 28.5174 49.5 28.5434 49.5C28.5695 49.5 28.5955 49.5 28.6215 49.5C28.6475 49.5 28.6736 49.5 28.6996 49.5C28.7256 49.5 28.7516 49.5 28.7776 49.5C28.8036 49.5 28.8296 49.5 28.8556 49.5C28.8816 49.5 28.9076 49.5 28.9336 49.5C28.9596 49.5 28.9856 49.5 29.0116 49.5C29.0375 49.5 29.0635 49.5 29.0895 49.5C29.1155 49.5 29.1414 49.5 29.1674 49.5C29.1933 49.5 29.2193 49.5 29.2452 49.5C29.2712 49.5 29.2971 49.5 29.3231 49.5C29.349 49.5 29.3749 49.5 29.4008 49.5C29.4268 49.5 29.4527 49.5 29.4786 49.5C29.5045 49.5 29.5304 49.5 29.5563 49.5C29.5822 49.5 29.6081 49.5 29.634 49.5C29.6599 49.5 29.6858 49.5 29.7116 49.5C29.7375 49.5 29.7634 49.5 29.7892 49.5C29.8151 49.5 29.8409 49.5 29.8668 49.5C29.8926 49.5 29.9185 49.5 29.9443 49.5C29.9701 49.5 29.9959 49.5 30.0218 49.5C30.0476 49.5 30.0734 49.5 30.0992 49.5C30.125 49.5 30.1508 49.5 30.1766 49.5C30.2024 49.5 30.2281 49.5 30.2539 49.5C30.2797 49.5 30.3054 49.5 30.3312 49.5C30.357 49.5 30.3827 49.5 30.4084 49.5C30.4342 49.5 30.4599 49.5 30.4856 49.5C30.5114 49.5 30.5371 49.5 30.5628 49.5C30.5885 49.5 30.6142 49.5 30.6399 49.5C30.6655 49.5 30.6912 49.5 30.7169 49.5C30.7426 49.5 30.7682 49.5 30.7939 49.5C30.8195 49.5 30.8452 49.5 30.8708 49.5C30.8964 49.5 30.9221 49.5 30.9477 49.5C30.9733 49.5 30.9989 49.5 31.0245 49.5C31.0501 49.5 31.0757 49.5 31.1012 49.5C31.1268 49.5 31.1524 49.5 31.1779 49.5C31.2035 49.5 31.229 49.5 31.2546 49.5C31.2801 49.5 31.3056 49.5 31.3312 49.5C31.3567 49.5 31.3822 49.5 31.4077 49.5C31.4332 49.5 31.4586 49.5 31.4841 49.5C31.5096 49.5 31.5351 49.5 31.5605 49.5C31.586 49.5 31.6114 49.5 31.6368 49.5C31.6623 49.5 31.6877 49.5 31.7131 49.5C31.7385 49.5 31.7639 49.5 31.7893 49.5C31.8147 49.5 31.84 49.5 31.8654 49.5C31.8908 49.5 31.9161 49.5 31.9414 49.5C31.9668 49.5 31.9921 49.5 32.0174 49.5C32.0427 49.5 32.068 49.5 32.0933 49.5C32.1186 49.5 32.1439 49.5 32.1692 49.5C32.1944 49.5 32.2197 49.5 32.2449 49.5C32.2702 49.5 32.2954 49.5 32.3206 49.5C32.3458 49.5 32.371 49.5 32.3962 49.5C32.4214 49.5 32.4466 49.5 32.4718 49.5C32.4969 49.5 32.5221 49.5 32.5472 49.5C32.5724 49.5 32.5975 49.5 32.6226 49.5C32.6477 49.5 32.6728 49.5 32.6979 49.5C32.723 49.5 32.748 49.5 32.7731 49.5C32.7982 49.5 32.8232 49.5 32.8482 49.5C32.8733 49.5 32.8983 49.5 32.9233 49.5C32.9483 49.5 32.9733 49.5 32.9983 49.5C33.0232 49.5 33.0482 49.5 33.0731 49.5C33.0981 49.5 33.123 49.5 33.1479 49.5C33.1728 49.5 33.1978 49.5 33.2226 49.5C33.2475 49.5 33.2724 49.5 33.2973 49.5C33.3221 49.5 33.347 49.5 33.3718 49.5C33.3966 49.5 33.4214 49.5 33.4462 49.5C33.471 49.5 33.4958 49.5 33.5206 49.5C33.5453 49.5 33.5701 49.5 33.5948 49.5C33.6196 49.5 33.6443 49.5 33.669 49.5C33.6937 49.5 33.7184 49.5 33.7431 49.5C33.7677 49.5 33.7924 49.5 33.817 49.5C33.8417 49.5 33.8663 49.5 33.8909 49.5C33.9155 49.5 33.9401 49.5 33.9647 49.5C33.9893 49.5 34.0138 49.5 34.0384 49.5C34.0629 49.5 34.0874 49.5 34.1119 49.5C34.1365 49.5 34.1609 49.5 34.1854 49.5C34.2099 49.5 34.2344 49.5 34.2588 49.5C34.2832 49.5 34.3077 49.5 34.3321 49.5C34.3565 49.5 34.3809 49.5 34.4052 49.5C34.4296 49.5 34.454 49.5 34.4783 49.5C34.5026 49.5 34.527 49.5 34.5513 49.5C34.5756 49.5 34.5998 49.5 34.6241 49.5C34.6484 49.5 34.6726 49.5 34.6968 49.5C34.7211 49.5 34.7453 49.5 34.7695 49.5C34.7937 49.5 34.8178 49.5 34.842 49.5C34.8662 49.5 34.8903 49.5 34.9144 49.5C34.9385 49.5 34.9626 49.5 34.9867 49.5C35.0108 49.5 35.0348 49.5 35.0589 49.5C35.0829 49.5 35.107 49.5 35.131 49.5C35.155 49.5 35.1789 49.5 35.2029 49.5C35.2269 49.5 35.2508 49.5 35.2747 49.5C35.2987 49.5 35.3226 49.5 35.3465 49.5C35.3703 49.5 35.3942 49.5 35.4181 49.5C35.4419 49.5 35.4657 49.5 35.4895 49.5C35.5133 49.5 35.5371 49.5 35.5609 49.5C35.5847 49.5 35.6084 49.5 35.6321 49.5C35.6559 49.5 35.6796 49.5 35.7033 49.5C35.7269 49.5 35.7506 49.5 35.7742 49.5C35.7979 49.5 35.8215 49.5 35.8451 49.5C35.8687 49.5 35.8923 49.5 35.9158 49.5C35.9394 49.5 35.9629 49.5 35.9865 49.5C36.01 49.5 36.0335 49.5 36.0569 49.5C36.0804 49.5 36.1039 49.5 36.1273 49.5C36.1507 49.5 36.1741 49.5 36.1975 49.5C36.2209 49.5 36.2443 49.5 36.2676 49.5C36.2909 49.5 36.3143 49.5 36.3376 49.5C36.3609 49.5 36.3841 49.5 36.4074 49.5C36.4306 49.5 36.4539 49.5 36.4771 49.5C36.5003 49.5 36.5235 49.5 36.5466 49.5C36.5698 49.5 36.5929 49.5 36.6161 49.5C36.6392 49.5 36.6623 49.5 36.6853 49.5C36.7084 49.5 36.7315 49.5 36.7545 49.5C36.7775 49.5 36.8005 49.5 36.8235 49.5C36.8465 49.5 36.8694 49.5 36.8923 49.5C36.9153 49.5 36.9382 49.5 36.9611 49.5C36.9839 49.5 37.0068 49.5 37.0296 49.5C37.0525 49.5 37.0753 49.5 37.0981 49.5C37.1209 49.5 37.1436 49.5 37.1664 49.5C37.1891 49.5 37.2118 49.5 37.2345 49.5C37.2572 49.5 37.2798 49.5 37.3025 49.5C37.3251 49.5 37.3477 49.5 37.3703 49.5C37.3929 49.5 37.4155 49.5 37.438 49.5C37.4606 49.5 37.4831 49.5 37.5056 49.5C37.5281 49.5 37.5505 49.5 37.573 49.5C37.5954 49.5 37.6178 49.5 37.6402 49.5C37.6626 49.5 37.685 49.5 37.7073 49.5C37.7296 49.5 37.7519 49.5 37.7742 49.5C37.7965 49.5 37.8188 49.5 37.841 49.5C37.8632 49.5 37.8854 49.5 37.9076 49.5C37.9298 49.5 37.952 49.5 37.9741 49.5C37.9962 49.5 38.0183 49.5 38.0404 49.5C38.0625 49.5 38.0845 49.5 38.1065 49.5C38.1286 49.5 38.1506 49.5 38.1725 49.5C38.1945 49.5 38.2164 49.5 38.2383 49.5C38.2603 49.5 38.2821 49.5 38.304 49.5C38.3259 49.5 38.3477 49.5 38.3695 49.5C38.3913 49.5 38.4131 49.5 38.4348 49.5C38.4566 49.5 38.4783 49.5 38.5 49.5C38.5217 49.5 38.5434 49.5 38.565 49.5C38.5866 49.5 38.6082 49.5 38.6298 49.5C38.6514 49.5 38.673 49.5 38.6945 49.5C38.716 49.5 38.7375 49.5 38.759 49.5C38.7804 49.5 38.8019 49.5 38.8233 49.5C38.8447 49.5 38.8661 49.5 38.8874 49.5C38.9088 49.5 38.9301 49.5 38.9514 49.5C38.9727 49.5 38.994 49.5 39.0152 49.5C39.0364 49.5 39.0576 49.5 39.0788 49.5C39.1 49.5 39.1211 49.5 39.1423 49.5C39.1634 49.5 39.1845 49.5 39.2055 49.5C39.2266 49.5 39.2476 49.5 39.2686 49.5C39.2896 49.5 39.3106 49.5 39.3315 49.5C39.3525 49.5 39.3734 49.5 39.3943 49.5C39.4151 49.5 39.436 49.5 39.4568 49.5C39.4776 49.5 39.4984 49.5 39.5192 49.5C39.5399 49.5 39.5607 49.5 39.5813 49.5C39.602 49.5 39.6227 49.5 39.6433 49.5C39.664 49.5 39.6846 49.5 39.7051 49.5C39.7257 49.5 39.7463 49.5 39.7668 49.5C39.7873 49.5 39.8078 49.5 39.8282 49.5C39.8486 49.5 39.8691 49.5 39.8894 49.5C39.9098 49.5 39.9302 49.5 39.9505 49.5C39.9708 49.5 39.9911 49.5 40.0114 49.5C40.0316 49.5 40.0518 49.5 40.072 49.5C40.0922 49.5 40.1124 49.5 40.1325 49.5C40.1526 49.5 40.1727 49.5 40.1928 49.5C40.2128 49.5 40.2329 49.5 40.2529 49.5C40.2729 49.5 40.2928 49.5 40.3128 49.5C40.3327 49.5 40.3526 49.5 40.3725 49.5C40.3923 49.5 40.4121 49.5 40.4319 49.5C40.4517 49.5 40.4715 49.5 40.4912 49.5C40.511 49.5 40.5307 49.5 40.5503 49.5C40.57 49.5 40.5896 49.5 40.6092 49.5C40.6288 49.5 40.6484 49.5 40.6679 49.5C40.6874 49.5 40.7069 49.5 40.7264 49.5C40.7459 49.5 40.7653 49.5 40.7847 49.5C40.8041 49.5 40.8234 49.5 40.8427 49.5C40.8621 49.5 40.8814 49.5 40.9006 49.5C40.9199 49.5 40.9391 49.5 40.9583 49.5C40.9775 49.5 40.9966 49.5 41.0157 49.5C41.0348 49.5 41.0539 49.5 41.073 49.5C41.092 49.5 41.111 49.5 41.13 49.5C41.149 49.5 41.1679 49.5 41.1868 49.5C41.2057 49.5 41.2246 49.5 41.2434 49.5C41.2622 49.5 41.281 49.5 41.2998 49.5C41.3185 49.5 41.3373 49.5 41.356 49.5C41.3746 49.5 41.3933 49.5 41.4119 49.5C41.4305 49.5 41.4491 49.5 41.4676 49.5C41.4862 49.5 41.5047 49.5 41.5232 49.5C41.5416 49.5 41.5601 49.5 41.5785 49.5C41.5969 49.5 41.6152 49.5 41.6335 49.5C41.6519 49.5 41.6701 49.5 41.6884 49.5C41.7066 49.5 41.7249 49.5 41.743 49.5C41.7612 49.5 41.7793 49.5 41.7974 49.5C41.8155 49.5 41.8336 49.5 41.8516 49.5C41.8696 49.5 41.8876 49.5 41.9056 49.5C41.9235 49.5 41.9414 49.5 41.9593 49.5C41.9772 49.5 41.995 49.5 42.0128 49.5C42.0306 49.5 42.0484 49.5 42.0661 49.5C42.0838 49.5 42.1015 49.5 42.1191 49.5C42.1368 49.5 42.1544 49.5 42.1719 49.5C42.1895 49.5 42.207 49.5 42.2245 49.5C42.242 49.5 42.2595 49.5 42.2769 49.5C42.2943 49.5 42.3117 49.5 42.329 49.5C42.3463 49.5 42.3636 49.5 42.3809 49.5V47.5C42.3636 47.5 42.3463 47.5 42.329 47.5C42.3117 47.5 42.2943 47.5 42.2769 47.5C42.2595 47.5 42.242 47.5 42.2245 47.5C42.207 47.5 42.1895 47.5 42.1719 47.5C42.1544 47.5 42.1368 47.5 42.1191 47.5C42.1015 47.5 42.0838 47.5 42.0661 47.5C42.0484 47.5 42.0306 47.5 42.0128 47.5C41.995 47.5 41.9772 47.5 41.9593 47.5C41.9414 47.5 41.9235 47.5 41.9056 47.5C41.8876 47.5 41.8696 47.5 41.8516 47.5C41.8336 47.5 41.8155 47.5 41.7974 47.5C41.7793 47.5 41.7612 47.5 41.743 47.5C41.7249 47.5 41.7066 47.5 41.6884 47.5C41.6701 47.5 41.6519 47.5 41.6335 47.5C41.6152 47.5 41.5969 47.5 41.5785 47.5C41.5601 47.5 41.5416 47.5 41.5232 47.5C41.5047 47.5 41.4862 47.5 41.4676 47.5C41.4491 47.5 41.4305 47.5 41.4119 47.5C41.3933 47.5 41.3746 47.5 41.356 47.5C41.3373 47.5 41.3185 47.5 41.2998 47.5C41.281 47.5 41.2622 47.5 41.2434 47.5C41.2246 47.5 41.2057 47.5 41.1868 47.5C41.1679 47.5 41.149 47.5 41.13 47.5C41.111 47.5 41.092 47.5 41.073 47.5C41.0539 47.5 41.0348 47.5 41.0157 47.5C40.9966 47.5 40.9775 47.5 40.9583 47.5C40.9391 47.5 40.9199 47.5 40.9006 47.5C40.8814 47.5 40.8621 47.5 40.8427 47.5C40.8234 47.5 40.8041 47.5 40.7847 47.5C40.7653 47.5 40.7459 47.5 40.7264 47.5C40.7069 47.5 40.6874 47.5 40.6679 47.5C40.6484 47.5 40.6288 47.5 40.6092 47.5C40.5896 47.5 40.57 47.5 40.5503 47.5C40.5307 47.5 40.511 47.5 40.4912 47.5C40.4715 47.5 40.4517 47.5 40.4319 47.5C40.4121 47.5 40.3923 47.5 40.3725 47.5C40.3526 47.5 40.3327 47.5 40.3128 47.5C40.2928 47.5 40.2729 47.5 40.2529 47.5C40.2329 47.5 40.2128 47.5 40.1928 47.5C40.1727 47.5 40.1526 47.5 40.1325 47.5C40.1124 47.5 40.0922 47.5 40.072 47.5C40.0518 47.5 40.0316 47.5 40.0114 47.5C39.9911 47.5 39.9708 47.5 39.9505 47.5C39.9302 47.5 39.9098 47.5 39.8894 47.5C39.8691 47.5 39.8486 47.5 39.8282 47.5C39.8078 47.5 39.7873 47.5 39.7668 47.5C39.7463 47.5 39.7257 47.5 39.7051 47.5C39.6846 47.5 39.664 47.5 39.6433 47.5C39.6227 47.5 39.602 47.5 39.5813 47.5C39.5607 47.5 39.5399 47.5 39.5192 47.5C39.4984 47.5 39.4776 47.5 39.4568 47.5C39.436 47.5 39.4151 47.5 39.3943 47.5C39.3734 47.5 39.3525 47.5 39.3315 47.5C39.3106 47.5 39.2896 47.5 39.2686 47.5C39.2476 47.5 39.2266 47.5 39.2055 47.5C39.1845 47.5 39.1634 47.5 39.1423 47.5C39.1211 47.5 39.1 47.5 39.0788 47.5C39.0576 47.5 39.0364 47.5 39.0152 47.5C38.994 47.5 38.9727 47.5 38.9514 47.5C38.9301 47.5 38.9088 47.5 38.8874 47.5C38.8661 47.5 38.8447 47.5 38.8233 47.5C38.8019 47.5 38.7804 47.5 38.759 47.5C38.7375 47.5 38.716 47.5 38.6945 47.5C38.673 47.5 38.6514 47.5 38.6298 47.5C38.6082 47.5 38.5866 47.5 38.565 47.5C38.5434 47.5 38.5217 47.5 38.5 47.5C38.4783 47.5 38.4566 47.5 38.4348 47.5C38.4131 47.5 38.3913 47.5 38.3695 47.5C38.3477 47.5 38.3259 47.5 38.304 47.5C38.2821 47.5 38.2603 47.5 38.2383 47.5C38.2164 47.5 38.1945 47.5 38.1725 47.5C38.1506 47.5 38.1286 47.5 38.1065 47.5C38.0845 47.5 38.0625 47.5 38.0404 47.5C38.0183 47.5 37.9962 47.5 37.9741 47.5C37.952 47.5 37.9298 47.5 37.9076 47.5C37.8854 47.5 37.8632 47.5 37.841 47.5C37.8188 47.5 37.7965 47.5 37.7742 47.5C37.7519 47.5 37.7296 47.5 37.7073 47.5C37.685 47.5 37.6626 47.5 37.6402 47.5C37.6178 47.5 37.5954 47.5 37.573 47.5C37.5505 47.5 37.5281 47.5 37.5056 47.5C37.4831 47.5 37.4606 47.5 37.438 47.5C37.4155 47.5 37.3929 47.5 37.3703 47.5C37.3477 47.5 37.3251 47.5 37.3025 47.5C37.2798 47.5 37.2572 47.5 37.2345 47.5C37.2118 47.5 37.1891 47.5 37.1664 47.5C37.1436 47.5 37.1209 47.5 37.0981 47.5C37.0753 47.5 37.0525 47.5 37.0296 47.5C37.0068 47.5 36.9839 47.5 36.9611 47.5C36.9382 47.5 36.9153 47.5 36.8923 47.5C36.8694 47.5 36.8465 47.5 36.8235 47.5C36.8005 47.5 36.7775 47.5 36.7545 47.5C36.7315 47.5 36.7084 47.5 36.6853 47.5C36.6623 47.5 36.6392 47.5 36.6161 47.5C36.5929 47.5 36.5698 47.5 36.5466 47.5C36.5235 47.5 36.5003 47.5 36.4771 47.5C36.4539 47.5 36.4306 47.5 36.4074 47.5C36.3841 47.5 36.3609 47.5 36.3376 47.5C36.3143 47.5 36.2909 47.5 36.2676 47.5C36.2443 47.5 36.2209 47.5 36.1975 47.5C36.1741 47.5 36.1507 47.5 36.1273 47.5C36.1039 47.5 36.0804 47.5 36.0569 47.5C36.0335 47.5 36.01 47.5 35.9865 47.5C35.9629 47.5 35.9394 47.5 35.9158 47.5C35.8923 47.5 35.8687 47.5 35.8451 47.5C35.8215 47.5 35.7979 47.5 35.7742 47.5C35.7506 47.5 35.7269 47.5 35.7033 47.5C35.6796 47.5 35.6559 47.5 35.6321 47.5C35.6084 47.5 35.5847 47.5 35.5609 47.5C35.5371 47.5 35.5133 47.5 35.4895 47.5C35.4657 47.5 35.4419 47.5 35.4181 47.5C35.3942 47.5 35.3703 47.5 35.3465 47.5C35.3226 47.5 35.2987 47.5 35.2747 47.5C35.2508 47.5 35.2269 47.5 35.2029 47.5C35.1789 47.5 35.155 47.5 35.131 47.5C35.107 47.5 35.0829 47.5 35.0589 47.5C35.0348 47.5 35.0108 47.5 34.9867 47.5C34.9626 47.5 34.9385 47.5 34.9144 47.5C34.8903 47.5 34.8662 47.5 34.842 47.5C34.8178 47.5 34.7937 47.5 34.7695 47.5C34.7453 47.5 34.7211 47.5 34.6968 47.5C34.6726 47.5 34.6484 47.5 34.6241 47.5C34.5998 47.5 34.5756 47.5 34.5513 47.5C34.527 47.5 34.5026 47.5 34.4783 47.5C34.454 47.5 34.4296 47.5 34.4052 47.5C34.3809 47.5 34.3565 47.5 34.3321 47.5C34.3077 47.5 34.2832 47.5 34.2588 47.5C34.2344 47.5 34.2099 47.5 34.1854 47.5C34.1609 47.5 34.1365 47.5 34.1119 47.5C34.0874 47.5 34.0629 47.5 34.0384 47.5C34.0138 47.5 33.9893 47.5 33.9647 47.5C33.9401 47.5 33.9155 47.5 33.8909 47.5C33.8663 47.5 33.8417 47.5 33.817 47.5C33.7924 47.5 33.7677 47.5 33.7431 47.5C33.7184 47.5 33.6937 47.5 33.669 47.5C33.6443 47.5 33.6196 47.5 33.5948 47.5C33.5701 47.5 33.5453 47.5 33.5206 47.5C33.4958 47.5 33.471 47.5 33.4462 47.5C33.4214 47.5 33.3966 47.5 33.3718 47.5C33.347 47.5 33.3221 47.5 33.2973 47.5C33.2724 47.5 33.2475 47.5 33.2226 47.5C33.1978 47.5 33.1728 47.5 33.1479 47.5C33.123 47.5 33.0981 47.5 33.0731 47.5C33.0482 47.5 33.0232 47.5 32.9983 47.5C32.9733 47.5 32.9483 47.5 32.9233 47.5C32.8983 47.5 32.8733 47.5 32.8482 47.5C32.8232 47.5 32.7982 47.5 32.7731 47.5C32.748 47.5 32.723 47.5 32.6979 47.5C32.6728 47.5 32.6477 47.5 32.6226 47.5C32.5975 47.5 32.5724 47.5 32.5472 47.5C32.5221 47.5 32.4969 47.5 32.4718 47.5C32.4466 47.5 32.4214 47.5 32.3962 47.5C32.371 47.5 32.3458 47.5 32.3206 47.5C32.2954 47.5 32.2702 47.5 32.2449 47.5C32.2197 47.5 32.1944 47.5 32.1692 47.5C32.1439 47.5 32.1186 47.5 32.0933 47.5C32.068 47.5 32.0427 47.5 32.0174 47.5C31.9921 47.5 31.9668 47.5 31.9414 47.5C31.9161 47.5 31.8908 47.5 31.8654 47.5C31.84 47.5 31.8147 47.5 31.7893 47.5C31.7639 47.5 31.7385 47.5 31.7131 47.5C31.6877 47.5 31.6623 47.5 31.6368 47.5C31.6114 47.5 31.586 47.5 31.5605 47.5C31.5351 47.5 31.5096 47.5 31.4841 47.5C31.4586 47.5 31.4332 47.5 31.4077 47.5C31.3822 47.5 31.3567 47.5 31.3312 47.5C31.3056 47.5 31.2801 47.5 31.2546 47.5C31.229 47.5 31.2035 47.5 31.1779 47.5C31.1524 47.5 31.1268 47.5 31.1012 47.5C31.0757 47.5 31.0501 47.5 31.0245 47.5C30.9989 47.5 30.9733 47.5 30.9477 47.5C30.9221 47.5 30.8964 47.5 30.8708 47.5C30.8452 47.5 30.8195 47.5 30.7939 47.5C30.7682 47.5 30.7426 47.5 30.7169 47.5C30.6912 47.5 30.6655 47.5 30.6399 47.5C30.6142 47.5 30.5885 47.5 30.5628 47.5C30.5371 47.5 30.5114 47.5 30.4856 47.5C30.4599 47.5 30.4342 47.5 30.4084 47.5C30.3827 47.5 30.357 47.5 30.3312 47.5C30.3054 47.5 30.2797 47.5 30.2539 47.5C30.2281 47.5 30.2024 47.5 30.1766 47.5C30.1508 47.5 30.125 47.5 30.0992 47.5C30.0734 47.5 30.0476 47.5 30.0218 47.5C29.9959 47.5 29.9701 47.5 29.9443 47.5C29.9185 47.5 29.8926 47.5 29.8668 47.5C29.8409 47.5 29.8151 47.5 29.7892 47.5C29.7634 47.5 29.7375 47.5 29.7116 47.5C29.6858 47.5 29.6599 47.5 29.634 47.5C29.6081 47.5 29.5822 47.5 29.5563 47.5C29.5304 47.5 29.5045 47.5 29.4786 47.5C29.4527 47.5 29.4268 47.5 29.4008 47.5C29.3749 47.5 29.349 47.5 29.3231 47.5C29.2971 47.5 29.2712 47.5 29.2452 47.5C29.2193 47.5 29.1933 47.5 29.1674 47.5C29.1414 47.5 29.1155 47.5 29.0895 47.5C29.0635 47.5 29.0375 47.5 29.0116 47.5C28.9856 47.5 28.9596 47.5 28.9336 47.5C28.9076 47.5 28.8816 47.5 28.8556 47.5C28.8296 47.5 28.8036 47.5 28.7776 47.5C28.7516 47.5 28.7256 47.5 28.6996 47.5C28.6736 47.5 28.6475 47.5 28.6215 47.5C28.5955 47.5 28.5695 47.5 28.5434 47.5C28.5174 47.5 28.4914 47.5 28.4653 47.5C28.4393 47.5 28.4132 47.5 28.3872 47.5C28.3611 47.5 28.3351 47.5 28.309 47.5C28.283 47.5 28.2569 47.5 28.2308 47.5C28.2048 47.5 28.1787 47.5 28.1526 47.5C28.1266 47.5 28.1005 47.5 28.0744 47.5C28.0484 47.5 28.0223 47.5 27.9962 47.5C27.9701 47.5 27.944 47.5 27.9179 47.5C27.8918 47.5 27.8658 47.5 27.8397 47.5C27.8136 47.5 27.7875 47.5 27.7614 47.5C27.7353 47.5 27.7092 47.5 27.6831 47.5C27.657 47.5 27.6309 47.5 27.6048 47.5C27.5787 47.5 27.5526 47.5 27.5265 47.5C27.5003 47.5 27.4742 47.5 27.4481 47.5C27.422 47.5 27.3959 47.5 27.3698 47.5C27.3437 47.5 27.3175 47.5 27.2914 47.5C27.2653 47.5 27.2392 47.5 27.2131 47.5C27.1869 47.5 27.1608 47.5 27.1347 47.5C27.1086 47.5 27.0825 47.5 27.0563 47.5C27.0302 47.5 27.0041 47.5 26.978 47.5C26.9518 47.5 26.9257 47.5 26.8996 47.5C26.8734 47.5 26.8473 47.5 26.8212 47.5C26.7951 47.5 26.7689 47.5 26.7428 47.5C26.7167 47.5 26.6906 47.5 26.6644 47.5C26.6383 47.5 26.6122 47.5 26.586 47.5C26.5599 47.5 26.5338 47.5 26.5077 47.5C26.4815 47.5 26.4554 47.5 26.4293 47.5C26.4032 47.5 26.377 47.5 26.3509 47.5C26.3248 47.5 26.2987 47.5 26.2726 47.5C26.2464 47.5 26.2203 47.5 26.1942 47.5C26.1681 47.5 26.142 47.5 26.1158 47.5C26.0897 47.5 26.0636 47.5 26.0375 47.5C26.0114 47.5 25.9853 47.5 25.9592 47.5C25.933 47.5 25.9069 47.5 25.8808 47.5C25.8547 47.5 25.8286 47.5 25.8025 47.5C25.7764 47.5 25.7503 47.5 25.7242 47.5C25.6981 47.5 25.672 47.5 25.6459 47.5C25.6198 47.5 25.5937 47.5 25.5677 47.5C25.5416 47.5 25.5155 47.5 25.4894 47.5C25.4633 47.5 25.4372 47.5 25.4112 47.5C25.3851 47.5 25.359 47.5 25.3329 47.5C25.3069 47.5 25.2808 47.5 25.2547 47.5C25.2287 47.5 25.2026 47.5 25.1765 47.5C25.1505 47.5 25.1244 47.5 25.0984 47.5C25.0723 47.5 25.0463 47.5 25.0202 47.5C24.9942 47.5 24.9682 47.5 24.9421 47.5C24.9161 47.5 24.8901 47.5 24.864 47.5C24.838 47.5 24.812 47.5 24.786 47.5C24.7599 47.5 24.7339 47.5 24.7079 47.5C24.6819 47.5 24.6559 47.5 24.6299 47.5C24.6039 47.5 24.5779 47.5 24.5519 47.5C24.5259 47.5 24.4999 47.5 24.4739 47.5C24.448 47.5 24.422 47.5 24.396 47.5C24.37 47.5 24.3441 47.5 24.3181 47.5C24.2922 47.5 24.2662 47.5 24.2403 47.5C24.2143 47.5 24.1884 47.5 24.1624 47.5C24.1365 47.5 24.1105 47.5 24.0846 47.5C24.0587 47.5 24.0328 47.5 24.0069 47.5C23.9809 47.5 23.955 47.5 23.9291 47.5C23.9032 47.5 23.8773 47.5 23.8514 47.5C23.8256 47.5 23.7997 47.5 23.7738 47.5C23.7479 47.5 23.7221 47.5 23.6962 47.5C23.6703 47.5 23.6445 47.5 23.6186 47.5C23.5928 47.5 23.5669 47.5 23.5411 47.5C23.5153 47.5 23.4894 47.5 23.4636 47.5C23.4378 47.5 23.412 47.5 23.3862 47.5C23.3604 47.5 23.3346 47.5 23.3088 47.5C23.283 47.5 23.2572 47.5 23.2314 47.5C23.2057 47.5 23.1799 47.5 23.1541 47.5C23.1284 47.5 23.1026 47.5 23.0769 47.5C23.0511 47.5 23.0254 47.5 22.9997 47.5C22.9739 47.5 22.9482 47.5 22.9225 47.5C22.8968 47.5 22.8711 47.5 22.8454 47.5C22.8197 47.5 22.794 47.5 22.7684 47.5C22.7427 47.5 22.717 47.5 22.6914 47.5C22.6657 47.5 22.6401 47.5 22.6144 47.5C22.5888 47.5 22.5632 47.5 22.5375 47.5C22.5119 47.5 22.4863 47.5 22.4607 47.5C22.4351 47.5 22.4095 47.5 22.3839 47.5C22.3584 47.5 22.3328 47.5 22.3072 47.5C22.2817 47.5 22.2561 47.5 22.2306 47.5C22.205 47.5 22.1795 47.5 22.154 47.5C22.1285 47.5 22.103 47.5 22.0775 47.5C22.052 47.5 22.0265 47.5 22.001 47.5C21.9755 47.5 21.95 47.5 21.9246 47.5C21.8991 47.5 21.8737 47.5 21.8482 47.5C21.8228 47.5 21.7974 47.5 21.772 47.5C21.7466 47.5 21.7212 47.5 21.6958 47.5C21.6704 47.5 21.645 47.5 21.6196 47.5C21.5943 47.5 21.5689 47.5 21.5436 47.5C21.5182 47.5 21.4929 47.5 21.4676 47.5C21.4422 47.5 21.4169 47.5 21.3916 47.5C21.3663 47.5 21.3411 47.5 21.3158 47.5C21.2905 47.5 21.2653 47.5 21.24 47.5C21.2148 47.5 21.1895 47.5 21.1643 47.5C21.1391 47.5 21.1139 47.5 21.0887 47.5C21.0635 47.5 21.0383 47.5 21.0131 47.5C20.9879 47.5 20.9628 47.5 20.9376 47.5C20.9125 47.5 20.8874 47.5 20.8622 47.5C20.8371 47.5 20.812 47.5 20.7869 47.5C20.7618 47.5 20.7367 47.5 20.7117 47.5C20.6866 47.5 20.6616 47.5 20.6365 47.5C20.6115 47.5 20.5865 47.5 20.5614 47.5C20.5364 47.5 20.5114 47.5 20.4865 47.5C20.4615 47.5 20.4365 47.5 20.4116 47.5C20.3866 47.5 20.3617 47.5 20.3367 47.5C20.3118 47.5 20.2869 47.5 20.262 47.5C20.2371 47.5 20.2122 47.5 20.1874 47.5C20.1625 47.5 20.1376 47.5 20.1128 47.5C20.088 47.5 20.0632 47.5 20.0383 47.5C20.0135 47.5 19.9887 47.5 19.964 47.5C19.9392 47.5 19.9144 47.5 19.8897 47.5C19.8649 47.5 19.8402 47.5 19.8155 47.5C19.7908 47.5 19.7661 47.5 19.7414 47.5C19.7167 47.5 19.6921 47.5 19.6674 47.5C19.6428 47.5 19.6181 47.5 19.5935 47.5C19.5689 47.5 19.5443 47.5 19.5197 47.5C19.4951 47.5 19.4706 47.5 19.446 47.5C19.4215 47.5 19.3969 47.5 19.3724 47.5C19.3479 47.5 19.3234 47.5 19.2989 47.5C19.2744 47.5 19.2499 47.5 19.2255 47.5C19.201 47.5 19.1766 47.5 19.1522 47.5C19.1278 47.5 19.1034 47.5 19.079 47.5C19.0546 47.5 19.0303 47.5 19.0059 47.5C18.9816 47.5 18.9572 47.5 18.9329 47.5C18.9086 47.5 18.8843 47.5 18.8601 47.5C18.8358 47.5 18.8115 47.5 18.7873 47.5C18.763 47.5 18.7388 47.5 18.7146 47.5C18.6904 47.5 18.6662 47.5 18.6421 47.5C18.6179 47.5 18.5938 47.5 18.5696 47.5C18.5455 47.5 18.5214 47.5 18.4973 47.5C18.4732 47.5 18.4491 47.5 18.4251 47.5C18.401 47.5 18.377 47.5 18.353 47.5C18.329 47.5 18.305 47.5 18.281 47.5C18.257 47.5 18.2331 47.5 18.2091 47.5C18.1852 47.5 18.1613 47.5 18.1374 47.5C18.1135 47.5 18.0896 47.5 18.0658 47.5C18.0419 47.5 18.0181 47.5 17.9942 47.5C17.9704 47.5 17.9466 47.5 17.9229 47.5C17.8991 47.5 17.8753 47.5 17.8516 47.5C17.8279 47.5 17.8041 47.5 17.7804 47.5C17.7567 47.5 17.7331 47.5 17.7094 47.5C17.6858 47.5 17.6621 47.5 17.6385 47.5C17.6149 47.5 17.5913 47.5 17.5678 47.5C17.5442 47.5 17.5206 47.5 17.4971 47.5C17.4736 47.5 17.4501 47.5 17.4266 47.5C17.4031 47.5 17.3796 47.5 17.3562 47.5C17.3328 47.5 17.3093 47.5 17.2859 47.5C17.2625 47.5 17.2392 47.5 17.2158 47.5C17.1925 47.5 17.1691 47.5 17.1458 47.5C17.1225 47.5 17.0992 47.5 17.076 47.5C17.0527 47.5 17.0295 47.5 17.0062 47.5C16.983 47.5 16.9598 47.5 16.9366 47.5C16.9135 47.5 16.8903 47.5 16.8672 47.5C16.8441 47.5 16.821 47.5 16.7979 47.5C16.7748 47.5 16.7517 47.5 16.7287 47.5C16.7057 47.5 16.6826 47.5 16.6597 47.5C16.6367 47.5 16.6137 47.5 16.5908 47.5C16.5678 47.5 16.5449 47.5 16.522 47.5C16.4991 47.5 16.4762 47.5 16.4534 47.5C16.4305 47.5 16.4077 47.5 16.3849 47.5C16.3621 47.5 16.3393 47.5 16.3166 47.5C16.2938 47.5 16.2711 47.5 16.2484 47.5C16.2257 47.5 16.203 47.5 16.1804 47.5C16.1577 47.5 16.1351 47.5 16.1125 47.5C16.0899 47.5 16.0673 47.5 16.0448 47.5C16.0222 47.5 15.9997 47.5 15.9772 47.5C15.9547 47.5 15.9322 47.5 15.9097 47.5C15.8873 47.5 15.8649 47.5 15.8425 47.5C15.8201 47.5 15.7977 47.5 15.7753 47.5C15.753 47.5 15.7307 47.5 15.7084 47.5C15.6861 47.5 15.6638 47.5 15.6415 47.5C15.6193 47.5 15.5971 47.5 15.5749 47.5C15.5527 47.5 15.5305 47.5 15.5084 47.5C15.4862 47.5 15.4641 47.5 15.442 47.5C15.4199 47.5 15.3979 47.5 15.3758 47.5C15.3538 47.5 15.3318 47.5 15.3098 47.5C15.2878 47.5 15.2659 47.5 15.2439 47.5C15.222 47.5 15.2001 47.5 15.1782 47.5C15.1564 47.5 15.1345 47.5 15.1127 47.5C15.0909 47.5 15.0691 47.5 15.0473 47.5C15.0256 47.5 15.0038 47.5 14.9821 47.5C14.9604 47.5 14.9387 47.5 14.9171 47.5C14.8954 47.5 14.8738 47.5 14.8522 47.5C14.8306 47.5 14.809 47.5 14.7875 47.5C14.766 47.5 14.7445 47.5 14.723 47.5C14.7015 47.5 14.68 47.5 14.6586 47.5C14.6372 47.5 14.6158 47.5 14.5944 47.5C14.5731 47.5 14.5517 47.5 14.5304 47.5C14.5091 47.5 14.4878 47.5 14.4666 47.5C14.4453 47.5 14.4241 47.5 14.4029 47.5C14.3817 47.5 14.3605 47.5 14.3394 47.5C14.3183 47.5 14.2972 47.5 14.2761 47.5C14.255 47.5 14.234 47.5 14.2129 47.5C14.1919 47.5 14.1709 47.5 14.15 47.5C14.129 47.5 14.1081 47.5 14.0872 47.5C14.0663 47.5 14.0455 47.5 14.0246 47.5C14.0038 47.5 13.983 47.5 13.9622 47.5C13.9414 47.5 13.9207 47.5 13.9 47.5C13.8793 47.5 13.8586 47.5 13.8379 47.5C13.8173 47.5 13.7967 47.5 13.7761 47.5C13.7555 47.5 13.7349 47.5 13.7144 47.5C13.6939 47.5 13.6734 47.5 13.6529 47.5C13.6325 47.5 13.612 47.5 13.5916 47.5C13.5712 47.5 13.5509 47.5 13.5305 47.5C13.5102 47.5 13.4899 47.5 13.4696 47.5C13.4494 47.5 13.4291 47.5 13.4089 47.5C13.3887 47.5 13.3685 47.5 13.3484 47.5C13.3282 47.5 13.3081 47.5 13.288 47.5C13.268 47.5 13.2479 47.5 13.2279 47.5C13.2079 47.5 13.1879 47.5 13.168 47.5C13.148 47.5 13.1281 47.5 13.1082 47.5C13.0883 47.5 13.0685 47.5 13.0487 47.5C13.0289 47.5 13.0091 47.5 12.9893 47.5C12.9696 47.5 12.9499 47.5 12.9302 47.5C12.9105 47.5 12.8909 47.5 12.8712 47.5C12.8516 47.5 12.832 47.5 12.8125 47.5C12.793 47.5 12.7734 47.5 12.754 47.5C12.7345 47.5 12.715 47.5 12.6956 47.5C12.6762 47.5 12.6568 47.5 12.6375 47.5C12.6182 47.5 12.5989 47.5 12.5796 47.5C12.5603 47.5 12.5411 47.5 12.5219 47.5C12.5027 47.5 12.4835 47.5 12.4644 47.5C12.4452 47.5 12.4261 47.5 12.4071 47.5C12.388 47.5 12.369 47.5 12.35 47.5C12.331 47.5 12.312 47.5 12.2931 47.5C12.2742 47.5 12.2553 47.5 12.2365 47.5C12.2176 47.5 12.1988 47.5 12.18 47.5C12.1612 47.5 12.1425 47.5 12.1238 47.5C12.1051 47.5 12.0864 47.5 12.0678 47.5C12.0491 47.5 12.0305 47.5 12.012 47.5C11.9934 47.5 11.9749 47.5 11.9564 47.5C11.9379 47.5 11.9195 47.5 11.9011 47.5C11.8826 47.5 11.8643 47.5 11.8459 47.5C11.8276 47.5 11.8093 47.5 11.791 47.5C11.7727 47.5 11.7545 47.5 11.7363 47.5C11.7181 47.5 11.7 47.5 11.6818 47.5C11.6637 47.5 11.6456 47.5 11.6276 47.5C11.6096 47.5 11.5915 47.5 11.5736 47.5C11.5556 47.5 11.5377 47.5 11.5198 47.5C11.5019 47.5 11.484 47.5 11.4662 47.5C11.4484 47.5 11.4306 47.5 11.4129 47.5C11.3952 47.5 11.3775 47.5 11.3598 47.5C11.3421 47.5 11.3245 47.5 11.3069 47.5C11.2893 47.5 11.2718 47.5 11.2543 47.5C11.2368 47.5 11.2193 47.5 11.2019 47.5C11.1844 47.5 11.167 47.5 11.1497 47.5C11.1323 47.5 11.115 47.5 11.0978 47.5C11.0805 47.5 11.0632 47.5 11.046 47.5C11.0289 47.5 11.0117 47.5 10.9946 47.5C10.9775 47.5 10.9604 47.5 10.9434 47.5C10.9263 47.5 10.9093 47.5 10.8924 47.5C10.8754 47.5 10.8585 47.5 10.8416 47.5C10.8247 47.5 10.8079 47.5 10.7911 47.5C10.7743 47.5 10.7576 47.5 10.7409 47.5C10.7241 47.5 10.7075 47.5 10.6908 47.5C10.6742 47.5 10.6576 47.5 10.6411 47.5C10.6245 47.5 10.608 47.5 10.5915 47.5C10.5751 47.5 10.5586 47.5 10.5422 47.5C10.5259 47.5 10.5095 47.5 10.4932 47.5C10.4769 47.5 10.4606 47.5 10.4444 47.5C10.4282 47.5 10.412 47.5 10.3959 47.5C10.3798 47.5 10.3637 47.5 10.3476 47.5C10.3315 47.5 10.3155 47.5 10.2996 47.5C10.2836 47.5 10.2677 47.5 10.2518 47.5C10.2359 47.5 10.2201 47.5 10.2043 47.5C10.1885 47.5 10.1727 47.5 10.157 47.5C10.1413 47.5 10.1256 47.5 10.11 47.5C10.0943 47.5 10.0788 47.5 10.0632 47.5C10.0477 47.5 10.0322 47.5 10.0167 47.5C10.0013 47.5 9.98585 47.5 9.97048 47.5C9.95511 47.5 9.93979 47.5 9.9245 47.5C9.90922 47.5 9.89398 47.5 9.87878 47.5C9.86359 47.5 9.84844 47.5 9.83333 47.5C9.81822 47.5 9.80316 47.5 9.78814 47.5C9.77312 47.5 9.75814 47.5 9.74321 47.5C9.72828 47.5 9.71339 47.5 9.69855 47.5C9.68371 47.5 9.66891 47.5 9.65415 47.5C9.6394 47.5 9.62469 47.5 9.61003 47.5C9.59536 47.5 9.58074 47.5 9.56617 47.5C9.55159 47.5 9.53706 47.5 9.52258 47.5C9.50809 47.5 9.49366 47.5 9.47926 47.5C9.46487 47.5 9.45052 47.5 9.43622 47.5C9.42191 47.5 9.40766 47.5 9.39344 47.5C9.37923 47.5 9.36507 47.5 9.35094 47.5C9.33682 47.5 9.32275 47.5 9.30872 47.5C9.29469 47.5 9.28071 47.5 9.26677 47.5C9.25284 47.5 9.23895 47.5 9.2251 47.5C9.21126 47.5 9.19746 47.5 9.18371 47.5C9.16996 47.5 9.15626 47.5 9.1426 47.5C9.12894 47.5 9.11533 47.5 9.10177 47.5C9.0882 47.5 9.07469 47.5 9.06122 47.5C9.04775 47.5 9.03432 47.5 9.02095 47.5C9.00757 47.5 8.99424 47.5 8.98096 47.5C8.96768 47.5 8.95445 47.5 8.94126 47.5C8.92808 47.5 8.91494 47.5 8.90185 47.5C8.88876 47.5 8.87572 47.5 8.86272 47.5C8.84973 47.5 8.83678 47.5 8.82388 47.5C8.81098 47.5 8.79813 47.5 8.78533 47.5C8.77253 47.5 8.75977 47.5 8.74707 47.5C8.73436 47.5 8.72171 47.5 8.7091 47.5C8.69649 47.5 8.68393 47.5 8.67142 47.5C8.65891 47.5 8.64644 47.5 8.63403 47.5C8.62162 47.5 8.60925 47.5 8.59694 47.5C8.58463 47.5 8.57236 47.5 8.56014 47.5C8.54793 47.5 8.53576 47.5 8.52364 47.5C8.51153 47.5 8.49946 47.5 8.48744 47.5C8.47542 47.5 8.46345 47.5 8.45153 47.5C8.43962 47.5 8.42775 47.5 8.41593 47.5C8.40411 47.5 8.39234 47.5 8.38062 47.5V49.5ZM42.6057 49.4744C43.877 49.181 45.6283 48.3191 46.8493 46.6538C48.1028 44.9443 48.7151 42.4999 47.8467 39.2424L45.9142 39.7576C46.6453 42.5001 46.091 44.3057 45.2364 45.4712C44.3494 46.6809 43.0511 47.319 42.156 47.5256L42.6057 49.4744ZM45.4575 27.4062C46.585 27.9323 47.8182 28.8486 48.3 29.8713C48.5218 30.3422 48.5792 30.8196 48.4119 31.3343C48.237 31.8725 47.7809 32.5577 46.7679 33.3436L47.9938 34.9239C49.2053 33.984 49.9758 32.993 50.314 31.9524C50.6598 30.8883 50.5168 29.8842 50.1093 29.019C49.3322 27.3695 47.5907 26.1946 46.3033 25.5938L45.4575 27.4062ZM46.7679 33.3436C46.6262 33.4535 46.4742 33.565 46.3112 33.6778L47.4496 35.3222C47.6406 35.1899 47.822 35.0572 47.9938 34.9239L46.7679 33.3436ZM47.4104 40.348C48.3142 39.7832 48.9577 39.1435 49.3484 38.4352C49.7454 37.7156 49.8507 36.9798 49.7596 36.2935C49.5844 34.9747 48.7047 33.9253 48.0144 33.3601L46.7473 34.9074C47.2237 35.2976 47.6939 35.9314 47.777 36.5568C47.8149 36.8426 47.7764 37.1443 47.5972 37.4691C47.4118 37.8052 47.0468 38.2168 46.3504 38.652L47.4104 40.348ZM2.40322 34.2876C2.07706 35.7882 1.8502 37.8952 2.01046 40.0734L4.00507 39.9266C3.86044 37.9609 4.06747 36.0472 4.35758 34.7124L2.40322 34.2876ZM2.01046 40.0734C2.27897 43.723 3.68872 47.9901 8.06439 49.4487L8.69686 47.5513C5.51072 46.4892 4.25605 43.3379 4.00507 39.9266L2.01046 40.0734ZM3.00776 41C3.6131 41 4.54792 40.9473 5.40533 40.7819C5.83173 40.6997 6.28084 40.5818 6.67269 40.4069C7.03261 40.2462 7.51792 39.9619 7.77529 39.4472L5.98643 38.5528C6.0438 38.4381 6.08552 38.4788 5.85741 38.5806C5.66124 38.6682 5.3779 38.7503 5.02657 38.8181C4.32851 38.9527 3.52679 39 3.00776 39V41ZM7.77529 39.4472C7.70867 39.5804 7.62407 39.6108 7.66033 39.593C7.69405 39.5764 7.78317 39.5441 7.9448 39.5222C8.2669 39.4785 8.727 39.4962 9.23692 39.6035C10.3191 39.8314 11.1912 40.3579 11.4861 40.9474L13.2747 40.0526C12.5691 38.6421 10.9415 37.9186 9.649 37.6465C8.97159 37.5038 8.27564 37.459 7.67602 37.5403C7.3768 37.5809 7.06364 37.6579 6.77904 37.7976C6.497 37.9361 6.17805 38.1696 5.98643 38.5528L7.77529 39.4472ZM11.6734 41.2072C12.6498 42.1833 14.0658 42.1362 15.09 41.9304C16.1762 41.7122 17.2275 41.2391 17.8766 40.8682L16.8842 39.1318C16.3667 39.4275 15.5182 39.8044 14.6962 39.9696C13.8121 40.1472 13.3114 40.0167 13.0874 39.7928L11.6734 41.2072ZM18.1544 40.6332C18.3424 40.4034 18.8188 40.035 19.5505 39.9267C20.2542 39.8226 21.2798 39.9477 22.5961 40.8305L23.7101 39.1695C22.0443 38.0523 20.5244 37.7608 19.2576 37.9483C18.019 38.1316 17.1001 38.7633 16.6064 39.3668L18.1544 40.6332ZM22.5961 40.8305C24.3097 41.9797 25.9405 42.1636 27.2983 41.8492C28.6153 41.5444 29.6098 40.7874 30.1491 40.1402L28.6126 38.8598C28.3186 39.2126 27.6903 39.7056 26.8473 39.9008C26.0451 40.0864 24.9787 40.0203 23.7101 39.1695L22.5961 40.8305ZM29.9357 40.332C30.6396 39.8625 32.689 39.2232 34.6733 41.2072L36.0875 39.7928C33.271 36.9768 30.1215 37.8041 28.826 38.668L29.9357 40.332ZM34.6733 41.2072C35.3904 41.9241 36.1662 42.3482 36.979 42.4768C37.7904 42.6051 38.5363 42.4228 39.1669 42.1062C40.3864 41.4937 41.2863 40.3286 41.7546 39.4856L40.0062 38.5144C39.6413 39.1714 38.9914 39.9563 38.2693 40.3188C37.9291 40.4897 37.6062 40.5511 37.2915 40.5013C36.9782 40.4518 36.5706 40.2759 36.0875 39.7928L34.6733 41.2072ZM41.1967 39.9487C41.8752 39.7225 42.9701 39.4736 44.0035 39.4624C45.0996 39.4507 45.7842 39.7052 46.0805 40.1001L47.6803 38.8999C46.7763 37.6948 45.2108 37.4493 43.982 37.4626C42.6904 37.4764 41.3854 37.7775 40.5641 38.0513L41.1967 39.9487ZM28.7573 5.9924C30.6687 6.22945 33.7158 6.9975 36.5475 8.51846C39.384 10.042 41.8853 12.254 42.9346 15.3235L44.8271 14.6765C43.5518 10.946 40.5687 8.40804 37.4939 6.75654C34.4144 5.1025 31.1236 4.27055 29.0035 4.0076L28.7573 5.9924ZM44.6329 25.2137C45.0355 25.4693 45.5667 25.5292 46.0404 25.3017L45.1745 23.4988C45.3664 23.4066 45.5664 23.4372 45.7051 23.5253L44.6329 25.2137ZM9.14767 21.7668C8.7346 21.5569 8.27521 21.5064 7.84984 21.5872L8.22319 23.552C8.2326 23.5502 8.23959 23.5505 8.24325 23.551C8.24664 23.5514 8.24562 23.5518 8.24157 23.5498L9.14767 21.7668Z" fill="white"/>
<circle cx="24.3809" cy="4.5" r="1" fill="white"/>
<circle cx="15.3809" cy="9.5" r="1" fill="white"/>
<circle cx="10.3809" cy="12.5" r="1" fill="white"/>
<circle cx="23.3809" cy="9.5" r="1" fill="white"/>
<circle cx="27.3809" cy="13.5" r="1" fill="white"/>
<circle cx="20.3809" cy="13.5" r="1" fill="white"/>
</svg>
