<svg width="52" height="52" viewBox="0 0 52 52" fill="none" xmlns="http://www.w3.org/2000/svg">
<path d="M8.5 30.5H2C4.4 47.7 10 51 12.5 50.5C18.1667 50.5 31.4 50.5 39 50.5C46.2 50.9 49.6667 37.3333 50.5 30.5H46M8.5 30.5L1.5 24.5L4.5 21L6.5 22.75M8.5 30.5H12.5M12.5 28V30.5M12.5 28V15M12.5 28L6.5 22.75M12.5 30.5H16.5M16.5 30.5V13H15.5M16.5 30.5H21.5M12.5 15V13H15.5M12.5 15H6.5V22.75M15.5 13V6H21.5V9M21.5 30.5H25.5M21.5 30.5V11M21.5 9L25.5 1.5L30.5 4L27.5 9M21.5 9V11M27.5 9H25.5V11M27.5 9H31V11.5M25.5 30.5V11M25.5 30.5H31M25.5 11H21.5M31 30.5V23.5M31 30.5H34.1728M31 11.5V23.5M31 11.5H35M35.5 19.5V11.5H35M35.5 19.5L32.6875 22M35.5 19.5L38.1406 22.75M31 23.5L32.6875 22M32.6875 22L34.1728 24M39 30.5L34.1728 24M39 30.5H34.1728M39 30.5H41M34.1728 24V30.5M42 27.5L41 30.5M42 27.5L38.1406 22.75M42 27.5L45.96 16.5M46 30.5L50.5 16.5L46.5 15L45.96 16.5M46 30.5H41M38.1406 22.75L42 10L36.5 8L35 11.5M40.5 9V5.5H46L45.96 16.5M9.5 36.5C9.5 45 10.6 45.5 19 45.5" stroke="white" stroke-width="2"/>
</svg>
