<svg width="297" height="291" viewBox="0 0 297 291" fill="none" xmlns="http://www.w3.org/2000/svg">
<path d="M143.718 4.78394C128.08 14.0014 125.355 45.9333 125.948 60.7471C131.871 57.1806 145.851 51.0352 154.381 54.9855C153.492 49.224 165.932 48.4016 165.043 46.7556C164.154 45.1097 171.263 24.535 173.04 21.243C174.461 18.6095 174.817 15.8137 173.04 10.8757C171.263 5.93801 159.356 -4.43352 143.718 4.78394Z" fill="white" stroke="#EA2828" stroke-width="1.2"/>
<path d="M154.158 52.7458C155.639 51.0998 160.351 47.2372 163.932 47.7555C169.263 48.527 182.591 55.2148 179.925 63.4446C177.259 71.6745 171.928 80.7266 163.043 82.3725C155.667 79.2192 150.064 78.6529 147.05 78.8319C146.287 78.8771 145.691 78.9699 145.272 79.0806C146.582 71.6742 150.193 56.0384 154.158 52.7458Z" fill="#2E4E65"/>
<path d="M163.932 47.7555C160.35 47.2372 155.639 51.0998 154.158 52.7458C150.193 56.0384 146.582 71.6742 145.272 79.0806C145.691 78.9699 146.287 78.8771 147.05 78.8319M163.932 47.7555C169.263 48.527 182.591 55.2148 179.925 63.4446C177.259 71.6745 171.928 80.7266 163.043 82.3725C155.667 79.2192 150.064 78.6529 147.05 78.8319M163.932 47.7555C155.046 55.9339 148.471 74.0241 147.05 78.8319" stroke="black" stroke-width="1.2"/>
<path d="M10.7737 278.308L8.10815 247.857C42.7607 281.6 52.5346 257.733 48.9804 269.255C46.1372 278.473 40.0952 284.618 37.4296 286.538C30.3214 288.732 15.5718 292.134 13.4393 288.184C11.3069 284.233 10.7737 279.954 10.7737 278.308Z" fill="#EC7C78"/>
<path d="M135.168 278.308C128.059 273.37 113.488 262.671 112.066 259.379C119.767 257.733 136.945 253.125 144.053 247.857C152.938 262.671 152.938 275.839 152.05 280.777C151.339 284.727 140.499 280.777 135.168 278.308Z" fill="#EC7C78"/>
<path d="M10.7737 278.308L8.10815 247.857C42.7607 281.6 52.5346 257.733 48.9804 269.255C46.1372 278.473 40.0952 284.618 37.4296 286.538C30.3214 288.732 15.5718 292.134 13.4393 288.184C11.3069 284.233 10.7737 279.954 10.7737 278.308Z" stroke="#CB3E4C" stroke-width="2"/>
<path d="M135.168 278.308C128.059 273.37 113.488 262.671 112.066 259.379C119.767 257.733 136.945 253.125 144.053 247.857C152.938 262.671 152.938 275.839 152.05 280.777C151.339 284.727 140.499 280.777 135.168 278.308Z" stroke="#CB3E4C" stroke-width="2"/>
<path d="M125.837 60.9247L127.614 87.2603C136.499 77.385 145.385 79.03 144.496 76.561C143.607 74.0921 148.05 65.0392 152.493 54.3409C135.433 51.7073 127.614 57.6328 125.837 60.9247Z" fill="black" stroke="black" stroke-width="2"/>
<path d="M13.4854 142.391C18.5204 133.887 37.298 116.385 72.1283 114.41C106.959 112.435 120.997 107.003 123.663 104.534L128.106 88.8971C134.029 82.0389 149.253 71.1206 162.758 82.3132C160.626 92.8474 165.424 98.2243 168.089 99.5959C171.051 101.242 176.086 105.521 172.532 109.472C168.089 114.41 184.083 124.286 183.194 131.692C182.306 139.099 184.971 139.099 180.529 155.559C187.637 158.851 193.857 161.32 193.857 167.081C191.896 167.705 189.453 168.593 186.748 169.718C192.376 178.715 208.251 194.733 226.732 186.833C245.214 178.932 257.534 177.505 261.385 177.78C272.936 182.718 292.306 194.898 277.378 204.115C260.319 210.041 256.646 204.938 256.942 201.646C255.905 201.479 254.697 201.271 253.388 201.03C252.182 204.171 249.442 205.573 246.28 205.989C240.593 214.731 227.917 211.874 222.29 209.353C220.655 210.785 217.65 211.402 215.181 211.522C214.15 210.461 212.322 209.113 209.85 208.049C208.665 210.304 204.519 215.966 197.411 220.575C209.495 218.6 212.516 220.849 212.516 222.221C211.923 223.867 208.606 227.159 200.076 227.159C189.04 235.577 182.105 231.822 179.406 228.182C175.149 228.385 167.956 228.598 156.538 228.805C151.462 228.897 146.408 228.42 141.433 227.493L128.106 228.805C33.5662 239.998 12.3007 175.859 13.4854 142.391Z" fill="#EC7C78"/>
<path d="M156.538 191.77C144.988 178.603 152.096 190.947 123.663 162.966C100.917 140.581 94.0453 143.214 93.453 147.329M156.538 191.77L172.532 204.115C178.455 197.257 195.811 186.668 217.847 199.177C224.231 204.351 224.381 207.52 222.29 209.353M156.538 191.77C162.176 181.849 176.383 174.033 186.748 169.718M193.857 207.407C200.395 205.389 205.931 206.361 209.85 208.049M186.748 169.718C189.453 168.593 191.896 167.705 193.857 167.081C193.857 161.32 187.637 158.851 180.529 155.559C184.971 139.099 182.306 139.099 183.194 131.692C184.083 124.286 168.089 114.41 172.532 109.472C176.086 105.521 171.051 101.242 168.089 99.5959C165.424 98.2243 160.626 92.8474 162.758 82.3132C149.253 71.1206 134.029 82.0389 128.106 88.8971L123.663 104.534C120.997 107.003 106.959 112.435 72.1283 114.41C37.298 116.385 18.5204 133.887 13.4854 142.391C12.3007 175.859 33.5662 239.998 128.106 228.805C132.548 228.367 141.433 227.493 141.433 227.493M186.748 169.718C192.376 178.715 208.251 194.733 226.732 186.833C245.214 178.932 257.534 177.505 261.385 177.78C272.936 182.718 292.306 194.898 277.378 204.115C260.319 210.041 256.646 204.938 256.942 201.646C255.905 201.479 254.697 201.271 253.388 201.03M233.84 195.062C235.648 197.295 246.098 199.685 253.388 201.03M233.84 204.115C236.911 205.301 241.985 206.554 246.28 205.989M253.388 201.03C252.182 204.171 249.442 205.573 246.28 205.989M222.29 209.353C220.655 210.785 217.65 211.402 215.181 211.522C214.15 210.461 212.322 209.113 209.85 208.049M222.29 209.353C227.917 211.874 240.593 214.731 246.28 205.989M72.1283 186.833C83.3352 199.1 110.882 221.796 141.433 227.493M209.85 208.049C208.665 210.304 204.519 215.966 197.411 220.575C209.495 218.6 212.516 220.849 212.516 222.221C211.923 223.867 208.606 227.159 200.076 227.159C187.992 236.376 180.825 231 178.752 227.159C186.452 227.433 192.79 228.147 156.538 228.805C151.462 228.897 146.408 228.42 141.433 227.493M186.748 214.814C183.49 216.186 177.152 219.423 177.863 221.398" stroke="#CB3E4C" stroke-width="2"/>
<path d="M145.83 116.524C153.827 120.638 159.158 121.461 160.935 120.638C164.489 119.815 168.045 117.346 171.597 114.055C174.19 116.524 178.924 122.795 182.26 126.4C187.591 132.16 184.925 149.443 180.483 154.381C176.04 159.319 167.155 154.381 165.378 154.381C163.008 157.124 156.315 161.294 148.496 156.027C134.99 148.785 139.314 125.918 143.165 115.39C144 115.667 144.889 116.039 145.83 116.524Z" fill="white"/>
<path d="M145.83 116.524L145.556 117.057V117.057L145.83 116.524ZM160.546 113.723C160.363 113.447 159.99 113.372 159.714 113.555C159.438 113.739 159.364 114.111 159.547 114.387L160.546 113.723ZM133.825 116.131C133.609 116.382 133.636 116.761 133.887 116.978C134.138 117.194 134.517 117.166 134.733 116.916L133.825 116.131ZM143.165 115.39L143.353 114.821L143.165 115.39ZM148.496 156.027L148.831 155.53L148.806 155.513L148.779 155.498L148.496 156.027ZM180.483 154.381L180.037 153.98L180.483 154.381ZM182.26 126.4L181.819 126.807L182.26 126.4ZM171.597 114.055L171.19 113.615L171.597 114.055ZM176.407 110.415C176.669 110.212 176.718 109.836 176.515 109.573C176.313 109.311 175.936 109.262 175.674 109.465L176.407 110.415ZM143.645 172.87C143.402 173.095 143.388 173.474 143.613 173.718C143.838 173.961 144.218 173.975 144.461 173.75L143.645 172.87ZM200.03 166.503C200.362 166.503 200.63 166.234 200.63 165.903C200.63 165.572 200.362 165.303 200.03 165.303V166.503ZM139.61 105.002L139.433 104.429L139.61 105.002ZM166.278 111.565L165.87 111.124L165.87 111.124L166.278 111.565ZM173.375 106.652L173.2 106.078L173.375 106.652ZM145.556 117.057C149.585 119.13 152.962 120.385 155.574 121.016C156.88 121.331 158.005 121.494 158.932 121.521C159.847 121.548 160.621 121.445 161.187 121.183L160.683 120.094C160.361 120.243 159.802 120.346 158.967 120.322C158.145 120.297 157.105 120.151 155.856 119.849C153.359 119.246 150.072 118.032 146.105 115.99L145.556 117.057ZM161.486 120.876C162.412 118.733 162.455 117.26 162.058 116.108C161.863 115.546 161.575 115.095 161.293 114.713C161.155 114.525 161.011 114.344 160.886 114.183C160.757 114.018 160.644 113.869 160.546 113.723L159.547 114.387C159.672 114.574 159.808 114.753 159.94 114.921C160.075 115.095 160.202 115.254 160.327 115.424C160.573 115.759 160.785 116.099 160.923 116.5C161.192 117.278 161.236 118.429 160.384 120.4L161.486 120.876ZM134.733 116.916C135.557 115.962 138.323 114.416 142.976 115.96L143.353 114.821C138.327 113.153 135.022 114.745 133.825 116.131L134.733 116.916ZM142.976 115.96C143.779 116.227 144.64 116.586 145.556 117.057L146.105 115.99C145.138 115.492 144.22 115.108 143.353 114.821L142.976 115.96ZM142.601 115.184C140.659 120.495 138.594 128.919 138.722 136.95C138.849 144.961 141.167 152.778 148.212 156.556L148.779 155.498C142.319 152.034 140.046 144.797 139.922 136.931C139.797 129.087 141.82 120.814 143.728 115.596L142.601 115.184ZM148.161 156.525C152.213 159.255 156.015 159.557 159.124 158.791C162.208 158.03 164.577 156.226 165.832 154.773L164.924 153.989C163.809 155.28 161.647 156.932 158.837 157.626C156.051 158.313 152.598 158.067 148.831 155.53L148.161 156.525ZM165.949 154.564C167.148 150.815 168.542 144.451 168.377 137.927C168.212 131.414 166.489 124.624 161.326 120.183L160.544 121.093C165.333 125.212 167.016 131.59 167.177 137.957C167.338 144.313 165.976 150.54 164.806 154.198L165.949 154.564ZM165.378 154.981C165.501 154.981 165.755 155.031 166.184 155.159C166.593 155.28 167.09 155.449 167.672 155.645C168.825 156.031 170.272 156.504 171.81 156.821C174.85 157.446 178.479 157.505 180.929 154.782L180.037 153.98C178.044 156.195 175.009 156.254 172.052 155.645C170.591 155.345 169.205 154.892 168.053 154.507C167.484 154.316 166.96 154.138 166.526 154.009C166.111 153.885 165.699 153.781 165.378 153.781V154.981ZM180.929 154.782C182.121 153.458 183.152 151.36 183.954 148.923C184.761 146.474 185.352 143.627 185.634 140.757C185.915 137.89 185.889 134.979 185.447 132.406C185.008 129.844 184.145 127.553 182.7 125.992L181.819 126.807C183.04 128.127 183.844 130.157 184.265 132.609C184.684 135.051 184.713 137.85 184.439 140.64C184.166 143.429 183.591 146.189 182.814 148.548C182.034 150.921 181.066 152.836 180.037 153.98L180.929 154.782ZM161.07 121.223C164.781 120.364 168.431 117.806 172.005 114.495L171.19 113.615C167.658 116.887 164.198 119.267 160.8 120.054L161.07 121.223ZM172.005 114.495C172.897 113.668 173.768 112.823 174.527 112.102C175.295 111.371 175.939 110.776 176.407 110.415L175.674 109.465C175.149 109.87 174.46 110.509 173.7 111.232C172.929 111.965 172.075 112.795 171.19 113.615L172.005 114.495ZM182.7 125.992C181.047 124.205 179.043 121.754 177.112 119.419C175.196 117.102 173.339 114.885 172.011 113.62L171.184 114.489C172.448 115.694 174.254 117.847 176.187 120.184C178.106 122.503 180.137 124.989 181.819 126.807L182.7 125.992ZM144.461 173.75C147.032 171.369 154.887 166.503 165.378 166.503V165.303C154.544 165.303 146.406 170.313 143.645 172.87L144.461 173.75ZM165.378 166.503H200.03V165.303H165.378V166.503ZM148.903 109.5C147.848 108.523 146.131 107.099 144.397 105.997C143.531 105.447 142.64 104.965 141.813 104.662C141.006 104.367 140.159 104.205 139.433 104.429L139.787 105.575C140.129 105.47 140.666 105.52 141.401 105.789C142.115 106.051 142.924 106.484 143.754 107.01C145.41 108.063 147.07 109.437 148.088 110.38L148.903 109.5ZM139.433 104.429C139.295 104.471 139.215 104.482 139.181 104.483C139.134 104.485 139.22 104.469 139.33 104.551C139.48 104.663 139.513 104.828 139.506 104.919C139.501 104.982 139.482 104.992 139.515 104.936C139.654 104.702 140.151 104.226 140.998 103.785C142.644 102.927 145.319 102.353 148.215 103.886L148.776 102.825C145.453 101.066 142.353 101.726 140.444 102.721C139.514 103.205 138.789 103.81 138.484 104.322C138.406 104.453 138.325 104.628 138.309 104.828C138.292 105.056 138.366 105.33 138.614 105.514C138.821 105.668 139.06 105.688 139.224 105.683C139.402 105.676 139.593 105.635 139.787 105.575L139.433 104.429ZM166.674 112.015L166.685 112.005L165.87 111.124L165.859 111.135L166.674 112.015ZM166.685 112.005C168.783 110.062 171.041 107.987 173.549 107.226L173.2 106.078C170.377 106.934 167.913 109.232 165.87 111.124L166.685 112.005ZM173.549 107.226C174.47 106.947 174.982 106.196 174.962 105.342C174.943 104.523 174.442 103.711 173.59 103.163C171.87 102.055 168.718 101.96 164.197 104.481L164.781 105.529C169.146 103.096 171.772 103.419 172.94 104.172C173.533 104.553 173.754 105.031 173.762 105.371C173.77 105.676 173.614 105.952 173.2 106.078L173.549 107.226Z" fill="black"/>
<path d="M163.543 15.9904C163.543 17.0425 162.61 17.9594 161.377 17.9594C160.145 17.9594 159.212 17.0425 159.212 15.9904C159.212 14.9384 160.145 14.0215 161.377 14.0215C162.61 14.0215 163.543 14.9384 163.543 15.9904Z" stroke="black"/>
<ellipse rx="1.9541" ry="4.1167" transform="matrix(0.997777 0.0666446 -0.0776203 0.996983 164.312 146.948)" fill="black"/>
<ellipse rx="1.95476" ry="4.11509" transform="matrix(0.999809 0.019538 -0.0227723 0.999741 182.531 145.352)" fill="black"/>
<path d="M1.74753 239.135C6.48637 237.764 13.6539 227.449 4.41321 197.163C-3.26934 171.984 3.59111 154.814 9.57064 146.138C12.5815 141.769 15.3689 139.554 15.9641 139.554C17.741 159.305 17.5608 161.232 24.8493 183.172C31.9575 204.57 66.6101 221.852 76.3839 225.144C87.9611 229.044 115.52 229.283 133.25 227.723C136.235 227.46 138.942 227.146 141.246 226.79C143.32 229.808 147.111 237.489 145.689 244.073C144.267 250.657 119.033 257.241 106.594 259.71L103.928 251.636C93.5703 254.942 73.8269 256.206 63.056 256.418C62.7598 257.79 61.6343 261.52 59.5018 265.471C36.0447 276.005 11.2252 252.303 1.74753 239.135Z" fill="#99DB57"/>
<path d="M110.148 248.188C109.183 249.529 106.957 250.67 103.928 251.636M103.928 251.636C93.5703 254.942 73.8269 256.206 63.056 256.418C62.7598 257.79 61.6343 261.52 59.5018 265.471C36.0447 276.005 11.2252 252.303 1.74753 239.135C6.48637 237.764 13.6539 227.449 4.41321 197.163C-3.26934 171.984 3.59111 154.814 9.57064 146.138M103.928 251.636L106.594 259.71C119.033 257.241 144.267 250.657 145.689 244.073C147.111 237.489 143.32 229.808 141.246 226.79C138.942 227.146 136.235 227.46 133.25 227.723M9.57064 146.138C12.5815 141.769 15.3689 139.554 15.9641 139.554C17.741 159.305 17.5608 161.232 24.8493 183.172C31.9575 204.57 66.6101 221.852 76.3839 225.144C87.9611 229.044 115.52 229.283 133.25 227.723M9.57064 146.138C10.2209 157.385 15.9641 183.172 21.2951 191.402C25.3647 197.684 38.1772 218.56 71.0527 230.082C97.3531 239.3 123.476 232.35 133.25 227.723" stroke="black"/>
<path d="M94.3824 241.273C104.334 246.54 106.735 239.079 106.735 235.512C88.9642 237.158 70.392 233.043 58.8413 226.46C53.5101 233.866 61.5068 239.627 66.838 237.158C66.838 246.376 73.9462 248.68 77.5004 248.68C82.2392 248.132 92.2499 245.882 94.3824 241.273Z" fill="#A872EC"/>
<path d="M137.92 241.273C131.523 235.348 138.426 231.672 142.276 230.574L144.941 237.158V242.096V244.565C144.053 247.034 137.92 251.149 127.171 253.618C124.328 247.693 130.22 247.309 133.477 247.034C136.143 247.583 140.763 247.199 137.92 241.273Z" fill="#A872EC"/>
<path d="M30.4082 226.46C28.2758 217.9 14.92 213.566 8.99649 212.469C12.5508 230.574 6.33145 235.513 3.66544 240.45C2.49942 242.61 25.0771 262.671 27.7426 261.025C30.0805 259.581 38.405 250.326 27.7426 242.919C19.2128 236.994 22.4115 233.866 25.0771 233.043C27.7426 234.415 32.5407 235.019 30.4082 226.46Z" fill="#A872EC"/>
<path d="M94.3824 241.273C104.334 246.54 106.735 239.079 106.735 235.512C88.9642 237.158 70.392 233.043 58.8413 226.46C53.5101 233.866 61.5068 239.627 66.838 237.158C66.838 246.376 73.9462 248.68 77.5004 248.68C82.2392 248.132 92.2499 245.882 94.3824 241.273Z" stroke="#3B0A78"/>
<path d="M137.92 241.273C131.523 235.348 138.426 231.672 142.276 230.574L144.941 237.158V242.096V244.565C144.053 247.034 137.92 251.149 127.171 253.618C124.328 247.693 130.22 247.309 133.477 247.034C136.143 247.583 140.763 247.199 137.92 241.273Z" stroke="#3B0A78"/>
<path d="M30.4082 226.46C28.2758 217.9 14.92 213.566 8.99649 212.469C12.5508 230.574 6.33145 235.513 3.66544 240.45C2.49942 242.61 25.0771 262.671 27.7426 261.025C30.0805 259.581 38.405 250.326 27.7426 242.919C19.2128 236.994 22.4115 233.866 25.0771 233.043C27.7426 234.415 32.5407 235.019 30.4082 226.46Z" stroke="#3B0A78"/>
<path d="M136.016 54C135.716 41.9418 139.434 14.4603 156.704 1M160.302 16.9841C157.004 22.0317 151.667 31.9587 153.106 38.0159M153.106 38.0159C150.408 40.5397 145.769 43.0635 142.312 37.1746M153.106 38.0159C153.106 40.2593 154.725 44.2413 161.201 42.2222M149.508 22.873C150.947 23.546 159.102 26.5185 163 27.9206" stroke="black" stroke-width="1.2"/>
<rect x="214.247" y="216.915" width="71.0822" height="24.6896" fill="#446878"/>
<path d="M186.444 269.587C186.444 266.953 200.661 254.773 207.769 249.012L229.982 236.666H234.424L237.979 221.853H248.641L245.975 234.197H265.523L269.966 221.853H279.739L274.408 236.666L275.297 248.189C280.332 247.915 290.579 247.695 291.29 249.012C292.179 250.658 290.402 261.357 283.293 259.711C284.182 263.003 279.739 264.649 274.408 264.649C273.697 274.524 269.966 276.445 268.188 276.17H192.664C182.89 276.17 186.444 272.878 186.444 269.587Z" fill="#477CA8" stroke="black" stroke-width="1.2"/>
<path d="M221.814 222.676C215.594 235.843 221.814 231.728 217.371 237.489H229.811C236.208 240.123 232.476 245.719 229.811 248.188H204.043C191.248 244.896 197.527 235.843 202.266 231.728C200.134 215.927 210.263 211.977 215.594 211.977C230.699 212.8 264.641 214.446 279.568 214.446C293.784 213.788 294.377 229.534 292.896 237.489C297.871 239.465 295.858 245.445 293.785 248.188H274.237C274.237 244.622 274.592 237.489 276.014 237.489H282.234C284.366 227.613 277.791 223.498 274.237 222.676C261.205 221.578 232.476 220.042 221.814 222.676Z" fill="#8881AA"/>
<path d="M202.266 231.728C204.635 234.472 210.974 239.464 217.371 237.489M202.266 231.728C200.134 215.927 210.263 211.977 215.594 211.977C230.699 212.8 264.641 214.446 279.568 214.446C293.784 213.788 294.377 229.534 292.896 237.489M202.266 231.728C197.527 235.843 191.248 244.896 204.043 248.188C218.26 248.188 227.145 248.188 229.811 248.188C232.476 245.719 236.208 240.123 229.811 237.489C223.413 237.489 218.852 237.489 217.371 237.489M217.371 237.489C221.814 231.728 215.594 235.843 221.814 222.676C232.476 220.042 261.205 221.578 274.237 222.676C277.791 223.498 284.366 227.613 282.234 237.489M282.234 237.489C285.788 240.123 290.823 238.587 292.896 237.489M282.234 237.489C280.753 237.489 277.436 237.489 276.014 237.489C274.592 237.489 274.237 244.622 274.237 248.188H293.785C295.858 245.445 297.871 239.465 292.896 237.489" stroke="black" stroke-width="1.2"/>
<ellipse cx="210.693" cy="230.083" rx="1.77706" ry="1.64597" fill="#493B3B"/>
<ellipse cx="212.469" cy="221.852" rx="1.77706" ry="1.64597" fill="#493B3B"/>
<ellipse cx="219.578" cy="216.915" rx="1.77706" ry="1.64597" fill="#493B3B"/>
<ellipse cx="232.017" cy="216.915" rx="1.77706" ry="1.64597" fill="#493B3B"/>
<ellipse cx="244.457" cy="216.915" rx="1.77706" ry="1.64597" fill="#493B3B"/>
<ellipse cx="256.896" cy="216.915" rx="1.77706" ry="1.64597" fill="#493B3B"/>
<ellipse cx="269.336" cy="218.561" rx="1.77706" ry="1.64597" fill="#493B3B"/>
<ellipse cx="281.775" cy="220.207" rx="1.77706" ry="1.64597" fill="#493B3B"/>
<ellipse cx="287.106" cy="226.791" rx="1.77706" ry="1.64597" fill="#493B3B"/>
<ellipse cx="287.106" cy="235.02" rx="1.77706" ry="1.64597" fill="#493B3B"/>
</svg>
