<svg width="39" height="52" viewBox="0 0 39 52" fill="none" xmlns="http://www.w3.org/2000/svg">
<path d="M7.50019 7C5.16685 10.6667 0.700188 18.4 1.50019 20M7.50019 7C8.16679 7 10 7 12 7M7.50019 7H4.5V1.5H14V7H12M1.50019 20H17.9773M1.50019 20C1.50019 20.4151 1.50019 20.926 1.50019 21.5M1.50019 30.5C2.00017 33 2.70014 38.8 1.50019 42C0.300232 45.2 1.66691 48.3333 2.50024 49.5C3.83362 50.1667 6.70034 51.1 7.50019 49.5C8.5 47.5 12 48.5 12 49.5C12 50.5 16.5 51 17.5 49.5C18.5 48 19 44.5 17.5 42C16.3 40 17 33.5 17.5 30.5M1.50019 30.5H17.5M1.50019 30.5C1.50019 29.3576 1.50019 27.5678 1.50019 25.7319M17.5 30.5L17.5682 29M12 7C13.6 9.4 16.6667 16.3333 18 19.5L17.9773 20M17.9773 20L17.7386 25.25M1.50019 21.5C2.83346 23.1667 6.4 25.9 10 23.5C13.6 21.1 16.6591 23.6667 17.7386 25.25M1.50019 21.5C1.50019 22.7281 1.50019 24.2451 1.50019 25.7319M17.7386 25.25L17.5682 29M1.50019 25.7319C3.00013 27.3213 6.8 29.9 10 27.5C13.2 25.1 16.3788 27.5 17.5682 29M25.2045 47.5C25.1571 48.6545 25.0805 49.6949 25 50.5H36C35.8748 49.7073 35.7371 48.666 35.6198 47.5M25.2045 47.5C25.3533 43.8745 25.2136 39.1237 24 37C23.0541 35.3447 22.7606 32.7923 22.7476 30.5M25.2045 47.5H35.6198M35.6198 47.5C35.2686 44.0084 35.6198 40 36 37C37.5 35 37.3586 32.5237 37.5 30.2879M22.7476 30.5C22.7386 28.9148 22.8637 27.4539 23 26.5H37.5C37.5678 27.3815 37.597 28.7542 37.5 30.2879M22.7476 30.5L37.5 30.2879" stroke="white" stroke-width="2"/>
</svg>
